<svg width="394" height="418" viewBox="0 0 394 418" fill="none" xmlns="http://www.w3.org/2000/svg">
<mask id="path-1-inside-1" fill="white">
<path d="M89.6178 108.178C85.4226 108.178 81.3216 106.84 77.8334 104.335C74.3452 101.829 71.6265 98.2679 70.0211 94.1014C68.4157 89.9349 67.9956 85.3501 68.814 80.9269C69.6325 76.5037 71.6527 72.4408 74.6191 69.2518C77.5856 66.0629 81.3651 63.8912 85.4797 63.0114C89.5942 62.1316 93.8591 62.5831 97.735 64.309C101.611 66.0348 104.924 68.9574 107.254 72.7072C109.585 76.457 110.829 80.8656 110.829 85.3754C110.829 91.4229 108.594 97.2227 104.616 101.499C100.639 105.775 95.2434 108.178 89.6178 108.178V108.178ZM89.6178 63.3602C85.5672 63.3602 81.6076 64.6514 78.2397 67.0706C74.8717 69.4897 72.2467 72.9282 70.6967 76.9511C69.1466 80.974 68.741 85.4007 69.5312 89.6714C70.3214 93.9421 72.272 97.865 75.1362 100.944C78.0004 104.023 81.6496 106.12 85.6223 106.969C89.5951 107.819 93.7129 107.383 97.4552 105.716C101.197 104.05 104.396 101.228 106.646 97.6078C108.897 93.9872 110.098 89.7307 110.098 85.3763C110.098 82.4851 109.568 79.6222 108.539 76.9511C107.51 74.28 106.001 71.8529 104.099 69.8085C102.198 67.7642 99.9399 66.1425 97.4552 65.0361C94.9704 63.9296 92.3073 63.3602 89.6178 63.3602V63.3602Z"/>
</mask>
<path d="M89.6178 108.178C85.4226 108.178 81.3216 106.84 77.8334 104.335C74.3452 101.829 71.6265 98.2679 70.0211 94.1014C68.4157 89.9349 67.9956 85.3501 68.814 80.9269C69.6325 76.5037 71.6527 72.4408 74.6191 69.2518C77.5856 66.0629 81.3651 63.8912 85.4797 63.0114C89.5942 62.1316 93.8591 62.5831 97.735 64.309C101.611 66.0348 104.924 68.9574 107.254 72.7072C109.585 76.457 110.829 80.8656 110.829 85.3754C110.829 91.4229 108.594 97.2227 104.616 101.499C100.639 105.775 95.2434 108.178 89.6178 108.178V108.178ZM89.6178 63.3602C85.5672 63.3602 81.6076 64.6514 78.2397 67.0706C74.8717 69.4897 72.2467 72.9282 70.6967 76.9511C69.1466 80.974 68.741 85.4007 69.5312 89.6714C70.3214 93.9421 72.272 97.865 75.1362 100.944C78.0004 104.023 81.6496 106.12 85.6223 106.969C89.5951 107.819 93.7129 107.383 97.4552 105.716C101.197 104.05 104.396 101.228 106.646 97.6078C108.897 93.9872 110.098 89.7307 110.098 85.3763C110.098 82.4851 109.568 79.6222 108.539 76.9511C107.51 74.28 106.001 71.8529 104.099 69.8085C102.198 67.7642 99.9399 66.1425 97.4552 65.0361C94.9704 63.9296 92.3073 63.3602 89.6178 63.3602V63.3602Z" fill="white"/>
<path d="M110.098 85.3763L40.0979 85.3761V85.3763H110.098ZM89.6178 38.1775C100.444 38.1775 110.56 41.6557 118.671 47.4813L36.9961 161.188C52.0827 172.025 70.4016 178.178 89.6178 178.178L89.6178 38.1775ZM118.671 47.4813C126.709 53.2551 132.249 60.9123 135.34 68.9331L4.70222 119.27C11.0036 135.624 21.9815 150.403 36.9961 161.188L118.671 47.4813ZM135.34 68.9331C138.421 76.9285 139.162 85.4692 137.646 93.6632L-0.0175527 68.1907C-3.1706 85.231 -1.58942 102.941 4.70222 119.27L135.34 68.9331ZM137.646 93.6632C136.127 101.868 132.275 110.046 125.872 116.929L23.366 21.5746C11.0305 34.8352 3.13753 51.1394 -0.0175527 68.1907L137.646 93.6632ZM125.872 116.929C119.42 123.865 110.566 129.23 100.117 131.464L70.8424 -5.44115C52.1638 -1.4471 35.7512 8.26056 23.366 21.5746L125.872 116.929ZM100.117 131.464C89.6166 133.709 78.7951 132.501 69.2607 128.256L126.209 0.361984C108.923 -7.33517 89.5718 -9.44609 70.8424 -5.44115L100.117 131.464ZM69.2607 128.256C59.8033 124.045 52.5469 117.293 47.8028 109.66L166.706 35.7544C157.3 20.6222 143.418 8.02486 126.209 0.361984L69.2607 128.256ZM47.8028 109.66C43.0845 102.069 40.8291 93.6304 40.8291 85.3754H180.829C180.829 68.1007 176.086 50.845 166.706 35.7544L47.8028 109.66ZM40.8291 85.3754C40.8291 74.4258 44.8283 62.9969 53.3634 53.8217L155.87 149.176C172.36 131.449 180.829 108.42 180.829 85.3754H40.8291ZM53.3634 53.8217C62.0573 44.4757 74.9775 38.1775 89.6178 38.1775V178.178C115.509 178.178 139.22 167.075 155.87 149.176L53.3634 53.8217ZM89.6178 -6.6398C70.5462 -6.6398 52.3687 -0.53309 37.4023 10.2172L119.077 123.924C110.846 129.836 100.588 133.36 89.6178 133.36V-6.6398ZM37.4023 10.2172C22.508 20.9156 11.6239 35.5724 5.37779 51.7828L136.016 102.119C132.87 110.284 127.235 118.064 119.077 123.924L37.4023 10.2172ZM5.37779 51.7828C-0.858457 67.9676 -2.42524 85.5197 0.699616 102.408L138.363 76.9352C139.907 85.2817 139.152 93.9804 136.016 102.119L5.37779 51.7828ZM0.699616 102.408C3.8265 119.307 11.6499 135.471 23.8831 148.621L126.389 53.2667C132.894 60.2594 136.816 68.5776 138.363 76.9352L0.699616 102.408ZM23.8831 148.621C36.1659 161.825 52.4482 171.458 70.985 175.422L100.26 38.5168C110.851 40.7815 119.835 46.2207 126.389 53.2667L23.8831 148.621ZM70.985 175.422C89.5726 179.396 108.777 177.301 125.929 169.663L68.9809 41.7695C78.6489 37.4645 89.6175 36.2412 100.26 38.5168L70.985 175.422ZM125.929 169.663C143.005 162.06 156.773 149.563 166.098 134.561L47.1948 60.6549C52.0192 52.8932 59.3898 46.0402 68.9809 41.7695L125.929 169.663ZM166.098 134.561C175.397 119.599 180.098 102.496 180.098 85.3763H40.0979C40.0979 76.9657 42.3962 68.3751 47.1948 60.6549L166.098 134.561ZM180.098 85.3765C180.098 73.9675 178.013 62.5662 173.858 51.7828L43.22 102.119C41.1235 96.6782 40.0978 91.0026 40.0979 85.3761L180.098 85.3765ZM173.858 51.7828C169.701 40.9947 163.49 30.8791 155.352 22.1313L52.8463 117.486C48.5123 112.827 45.3184 107.565 43.22 102.119L173.858 51.7828ZM155.352 22.1313C147.205 13.373 137.256 6.13266 125.929 1.08904L68.981 128.983C62.6236 126.152 57.19 122.155 52.8463 117.486L155.352 22.1313ZM125.929 1.08904C114.587 -3.96155 102.232 -6.63984 89.6176 -6.6398L89.618 133.36C82.3828 133.36 75.354 131.821 68.981 128.983L125.929 1.08904Z" fill="white" mask="url(#path-1-inside-1)"/>
<mask id="path-3-inside-2" fill="white">
<path d="M303.852 108.178C299.657 108.178 295.556 106.84 292.068 104.335C288.579 101.829 285.861 98.2679 284.255 94.1014C282.65 89.9349 282.23 85.3501 283.048 80.9269C283.867 76.5037 285.887 72.4408 288.853 69.2518C291.82 66.0629 295.599 63.8912 299.714 63.0114C303.828 62.1316 308.093 62.5831 311.969 64.309C315.845 66.0348 319.158 68.9574 321.489 72.7072C323.819 76.457 325.063 80.8656 325.063 85.3754C325.063 91.4229 322.829 97.2227 318.851 101.499C314.873 105.775 309.478 108.178 303.852 108.178ZM303.852 63.3602C299.801 63.3602 295.842 64.6514 292.474 67.0706C289.106 69.4897 286.481 72.9282 284.931 76.9511C283.381 80.974 282.975 85.4007 283.765 89.6714C284.556 93.9421 286.506 97.865 289.37 100.944C292.235 104.023 295.884 106.12 299.857 106.969C303.829 107.819 307.947 107.383 311.689 105.716C315.432 104.05 318.63 101.228 320.881 97.6078C323.131 93.9872 324.332 89.7307 324.332 85.3763C324.332 82.4851 323.802 79.6222 322.773 76.9511C321.744 74.28 320.235 71.8529 318.334 69.8085C316.432 67.7642 314.174 66.1425 311.689 65.0361C309.205 63.9296 306.541 63.3602 303.852 63.3602Z"/>
</mask>
<path d="M303.852 108.178C299.657 108.178 295.556 106.84 292.068 104.335C288.579 101.829 285.861 98.2679 284.255 94.1014C282.65 89.9349 282.23 85.3501 283.048 80.9269C283.867 76.5037 285.887 72.4408 288.853 69.2518C291.82 66.0629 295.599 63.8912 299.714 63.0114C303.828 62.1316 308.093 62.5831 311.969 64.309C315.845 66.0348 319.158 68.9574 321.489 72.7072C323.819 76.457 325.063 80.8656 325.063 85.3754C325.063 91.4229 322.829 97.2227 318.851 101.499C314.873 105.775 309.478 108.178 303.852 108.178ZM303.852 63.3602C299.801 63.3602 295.842 64.6514 292.474 67.0706C289.106 69.4897 286.481 72.9282 284.931 76.9511C283.381 80.974 282.975 85.4007 283.765 89.6714C284.556 93.9421 286.506 97.865 289.37 100.944C292.235 104.023 295.884 106.12 299.857 106.969C303.829 107.819 307.947 107.383 311.689 105.716C315.432 104.05 318.63 101.228 320.881 97.6078C323.131 93.9872 324.332 89.7307 324.332 85.3763C324.332 82.4851 323.802 79.6222 322.773 76.9511C321.744 74.28 320.235 71.8529 318.334 69.8085C316.432 67.7642 314.174 66.1425 311.689 65.0361C309.205 63.9296 306.541 63.3602 303.852 63.3602Z" fill="white"/>
<path d="M303.852 108.178L303.852 38.1775L303.852 108.178ZM325.063 85.3754H395.063H325.063ZM303.852 63.3602L303.852 133.36L303.852 133.36L303.852 63.3602ZM324.332 85.3763L254.332 85.3761V85.3763H324.332ZM303.852 38.1775C314.678 38.1775 324.795 41.6557 332.905 47.4813L251.23 161.188C266.317 172.025 284.636 178.178 303.852 178.178L303.852 38.1775ZM332.905 47.4813C340.943 53.2549 346.484 60.9121 349.574 68.9331L218.936 119.27C225.238 135.624 236.216 150.403 251.23 161.188L332.905 47.4813ZM349.574 68.9331C352.655 76.9288 353.396 85.4695 351.88 93.6632L214.217 68.1907C211.064 85.2307 212.645 102.941 218.936 119.27L349.574 68.9331ZM351.88 93.6632C350.362 101.868 346.509 110.046 340.106 116.929L237.6 21.5746C225.265 34.8352 217.372 51.1394 214.217 68.1907L351.88 93.6632ZM340.106 116.929C333.654 123.865 324.8 129.23 314.351 131.464L285.077 -5.44115C266.398 -1.4471 249.985 8.26056 237.6 21.5746L340.106 116.929ZM314.351 131.464C303.851 133.709 293.029 132.501 283.495 128.256L340.443 0.361985C323.157 -7.33518 303.806 -9.44608 285.077 -5.44115L314.351 131.464ZM283.495 128.256C274.037 124.045 266.781 117.292 262.037 109.66L380.94 35.7544C371.535 20.6224 357.653 8.02494 340.443 0.361985L283.495 128.256ZM262.037 109.66C257.319 102.069 255.063 93.6304 255.063 85.3754H395.063C395.063 68.1007 390.32 50.845 380.94 35.7544L262.037 109.66ZM255.063 85.3754C255.063 74.4256 259.063 62.9967 267.598 53.8217L370.104 149.176C386.594 131.449 395.063 108.42 395.063 85.3754L255.063 85.3754ZM267.598 53.8217C276.291 44.4757 289.212 38.1775 303.852 38.1775V178.178C329.743 178.178 353.454 167.075 370.104 149.176L267.598 53.8217ZM303.852 -6.6398C284.78 -6.6398 266.603 -0.533141 251.636 10.2172L333.311 123.924C325.081 129.836 314.822 133.36 303.852 133.36V-6.6398ZM251.636 10.2172C236.742 20.9156 225.858 35.5724 219.612 51.7828L350.25 102.119C347.104 110.284 341.47 118.064 333.311 123.924L251.636 10.2172ZM219.612 51.7828C213.376 67.9681 211.809 85.5203 214.934 102.408L352.597 76.9352C354.141 85.2811 353.386 93.9799 350.25 102.119L219.612 51.7828ZM214.934 102.408C218.061 119.306 225.884 135.47 238.117 148.621L340.623 53.2667C347.129 60.2597 351.051 68.5781 352.597 76.9352L214.934 102.408ZM238.117 148.621C250.4 161.825 266.683 171.458 285.219 175.422L314.494 38.5168C325.085 40.7815 334.069 46.2206 340.623 53.2667L238.117 148.621ZM285.219 175.422C303.807 179.396 323.011 177.301 340.164 169.663L283.215 41.7695C292.883 37.4645 303.852 36.2412 314.494 38.5168L285.219 175.422ZM340.164 169.663C357.239 162.06 371.007 149.563 380.332 134.561L261.429 60.6549C266.253 52.8932 273.624 46.0402 283.215 41.7695L340.164 169.663ZM380.332 134.561C389.631 119.599 394.332 102.496 394.332 85.3763H254.332C254.332 76.9657 256.63 68.3751 261.429 60.6549L380.332 134.561ZM394.332 85.3765C394.332 73.9672 392.247 62.5659 388.092 51.7828L257.454 102.119C255.358 96.6785 254.332 91.003 254.332 85.3761L394.332 85.3765ZM388.092 51.7828C383.935 40.995 377.724 30.8793 369.587 22.1313L267.081 117.486C262.746 112.827 259.552 107.565 257.454 102.119L388.092 51.7828ZM369.587 22.1313C361.439 13.3728 351.49 6.13256 340.164 1.08904L283.215 128.983C276.858 126.152 271.424 122.155 267.081 117.486L369.587 22.1313ZM340.164 1.08904C328.821 -3.96151 316.466 -6.63984 303.852 -6.6398L303.852 133.36C296.617 133.36 289.588 131.821 283.215 128.983L340.164 1.08904Z" fill="white" mask="url(#path-3-inside-2)"/>
<mask id="path-5-inside-3" fill="white">
<path d="M381.019 55.1503H12.9806C5.81593 55.1636 0.00980903 62.9343 0 72.5248V262.615C0.00980903 272.204 5.81593 279.972 12.9806 279.989H381.019C388.184 279.976 393.99 272.205 394 262.615V72.5239C393.99 62.9343 388.184 55.1671 381.019 55.1494V55.1503ZM392.475 262.615C392.467 271.077 387.344 277.935 381.021 277.945H12.9806C6.65787 277.934 1.53674 271.077 1.52694 262.615V72.5239C1.53429 64.0616 6.65787 57.2039 12.9806 57.1942H381.019C387.342 57.2048 392.463 64.0616 392.473 72.5239L392.475 262.615Z"/>
</mask>
<path d="M381.019 55.1503H12.9806C5.81593 55.1636 0.00980903 62.9343 0 72.5248V262.615C0.00980903 272.204 5.81593 279.972 12.9806 279.989H381.019C388.184 279.976 393.99 272.205 394 262.615V72.5239C393.99 62.9343 388.184 55.1671 381.019 55.1494V55.1503ZM392.475 262.615C392.467 271.077 387.344 277.935 381.021 277.945H12.9806C6.65787 277.934 1.53674 271.077 1.52694 262.615V72.5239C1.53429 64.0616 6.65787 57.2039 12.9806 57.1942H381.019C387.342 57.2048 392.463 64.0616 392.473 72.5239L392.475 262.615Z" fill="white"/>
<path d="M381.019 55.1503V125.15H451.019V55.1503H381.019ZM12.9806 55.1503V-14.8497H12.9157L12.8508 -14.8496L12.9806 55.1503ZM0 72.5248L-70 72.4532L-70 72.489V72.5248H0ZM0 262.615H-70V262.651L-70 262.686L0 262.615ZM12.9806 279.989L12.8076 349.989L12.8941 349.989H12.9806V279.989ZM381.019 279.989V349.989H381.084L381.149 349.989L381.019 279.989ZM394 262.615L464 262.686L464 262.651V262.615H394ZM394 72.5239H464V72.4881L464 72.4523L394 72.5239ZM381.019 55.1494L381.192 -14.8504L311.019 -15.0238V55.1494H381.019ZM392.475 262.615L462.475 262.682L462.475 262.648L462.475 262.614L392.475 262.615ZM381.021 277.945V347.945H381.075L381.129 347.944L381.021 277.945ZM12.9806 277.945L12.863 347.944L12.9218 347.945H12.9806V277.945ZM1.52694 262.615H-68.4731V262.655L-68.473 262.696L1.52694 262.615ZM1.52694 72.5239L-68.473 72.4631L-68.4731 72.4935V72.5239H1.52694ZM12.9806 57.1942V-12.8058H12.9267L12.8728 -12.8058L12.9806 57.1942ZM381.019 57.1942L381.137 -12.8057L381.078 -12.8058H381.019V57.1942ZM392.473 72.5239L462.473 72.5233L462.473 72.4831L462.473 72.4428L392.473 72.5239ZM381.019 -14.8497H12.9806V125.15H381.019V-14.8497ZM12.8508 -14.8496C-17.7581 -14.7928 -40.041 1.98126 -52.27 18.3492C-64.4911 34.7067 -69.9812 54.0629 -70 72.4532L70 72.5964C69.991 81.3962 67.4089 92.0718 59.8844 102.143C52.3521 112.225 36.5546 125.107 13.1104 125.15L12.8508 -14.8496ZM-70 72.5248V262.615H70V72.5248H-70ZM-70 262.686C-69.9811 281.08 -64.4891 300.436 -52.2671 316.792C-40.0373 333.159 -17.7702 349.913 12.8076 349.989L13.1536 209.989C36.5667 210.047 52.3484 222.909 59.8816 232.991C67.4068 243.062 69.991 253.739 70 262.543L-70 262.686ZM12.9806 349.989H381.019V209.989H12.9806V349.989ZM381.149 349.989C411.758 349.932 434.041 333.158 446.27 316.79C458.491 300.433 463.981 281.077 464 262.686L324 262.543C324.009 253.743 326.591 243.068 334.116 232.997C341.648 222.915 357.445 210.033 380.89 209.989L381.149 349.989ZM464 262.615V72.5239H324V262.615H464ZM464 72.4523C463.981 54.0588 458.489 34.7027 446.267 18.3465C434.037 1.97977 411.77 -14.7748 381.192 -14.8504L380.846 125.149C357.433 125.091 341.652 112.229 334.118 102.148C326.593 92.0771 324.009 81.3994 324 72.5956L464 72.4523ZM311.019 55.1494V55.1503H451.019V55.1494H311.019ZM322.475 262.547C322.484 253.184 325.236 241.996 333.038 231.553C340.849 221.098 357.037 207.981 380.913 207.945L381.129 347.944C411.328 347.898 433.238 331.348 445.194 315.346C457.14 299.355 462.457 280.508 462.475 262.682L322.475 262.547ZM381.021 207.945H12.9806V347.945H381.021V207.945ZM13.0983 207.945C36.9697 207.985 53.1546 221.099 60.9654 231.555C68.7662 241.996 71.516 253.179 71.5269 262.534L-68.473 262.696C-68.4524 280.512 -63.137 299.355 -51.1926 315.344C-39.238 331.346 -17.3312 347.894 12.863 347.944L13.0983 207.945ZM71.5269 262.615V72.5239H-68.4731V262.615H71.5269ZM71.5269 72.5848C71.5188 81.9524 68.7655 93.1426 60.9623 103.587C53.1507 114.042 36.9634 127.157 13.0884 127.194L12.8728 -12.8058C-17.325 -12.7592 -39.2354 3.78981 -51.1913 19.7919C-63.1389 35.7829 -68.4575 54.6332 -68.473 72.4631L71.5269 72.5848ZM12.9806 127.194H381.019V-12.8058H12.9806V127.194ZM380.902 127.194C357.03 127.154 340.845 114.04 333.035 103.584C325.234 93.1423 322.484 81.9594 322.473 72.6051L462.473 72.4428C462.452 54.6262 457.137 35.7837 445.192 19.7951C433.238 3.79308 411.331 -12.755 381.137 -12.8057L380.902 127.194ZM322.473 72.5246L322.475 262.615L462.475 262.614L462.473 72.5233L322.473 72.5246Z" fill="white" mask="url(#path-5-inside-3)"/>
<path d="M92.2692 131.51H27.0444V181.357H92.2692V131.51Z" fill="#F2F2F2"/>
<path d="M184.008 131.51H118.783V181.357H184.008V131.51Z" fill="#F2F2F2"/>
<path d="M275.747 131.51H209.992V181.357H275.747V131.51Z" fill="#F2F2F2"/>
<path d="M366.956 131.51H301.731V181.357H366.956V131.51Z" fill="#F2F2F2"/>
<path d="M92.2692 204.159H27.0444V254.005H92.2692V204.159Z" fill="#F2F2F2"/>
<path d="M184.008 204.159H118.783V254.005H184.008V204.159Z" fill="#F2F2F2"/>
<path d="M275.747 204.159H209.992V254.005H275.747V204.159Z" fill="#F2F2F2"/>
<path d="M366.956 204.159H301.731V254.005H366.956V204.159Z" fill="#F2F2F2"/>
<path d="M329.958 244.46L314.458 221.435L318.68 218.148L330.545 235.771L375.948 185.599L379.682 189.51L329.958 244.46Z" fill="#FE5517"/>
<path d="M232.79 180.826L217.416 157.594L221.604 154.277L233.372 172.059L278.406 121.435L282.11 125.381L232.79 180.826Z" fill="#FE5517"/>
<mask id="path-17-inside-4" fill="white">
<path d="M90.1481 0H89.0875V85.3755H90.1481V0Z"/>
</mask>
<path d="M90.1481 0H89.0875V85.3755H90.1481V0Z" fill="white"/>
<path d="M89.0875 0V-70H19.0875V0H89.0875ZM90.1481 0H160.148V-70H90.1481V0ZM90.1481 85.3755V155.376H160.148V85.3755H90.1481ZM89.0875 85.3755H19.0875V155.376H89.0875V85.3755ZM89.0875 70H90.1481V-70H89.0875V70ZM20.1481 0V85.3755H160.148V0H20.1481ZM90.1481 15.3755H89.0875V155.376H90.1481V15.3755ZM159.087 85.3755V0H19.0875V85.3755H159.087Z" fill="white" mask="url(#path-17-inside-4)"/>
<mask id="path-19-inside-5" fill="white">
<path d="M304.913 0H303.852V85.3755H304.913V0Z"/>
</mask>
<path d="M304.913 0H303.852V85.3755H304.913V0Z" fill="white"/>
<path d="M303.852 0V-70H233.852V0H303.852ZM304.913 0H374.913V-70H304.913V0ZM304.913 85.3755V155.376H374.913V85.3755H304.913ZM303.852 85.3755H233.852V155.376H303.852V85.3755ZM303.852 70H304.913V-70H303.852V70ZM234.913 0V85.3755H374.913V0H234.913ZM304.913 15.3755H303.852V155.376H304.913V15.3755ZM373.852 85.3755V0H233.852V85.3755H373.852Z" fill="white" mask="url(#path-19-inside-5)"/>
<path d="M49.8427 180.826L34.4684 157.594L38.6561 154.277L50.4248 172.059L95.4587 121.435L99.1629 125.381L49.8427 180.826Z" fill="#FE5517"/>
<path d="M279.515 363.494C276.605 355.804 272.455 348.478 267.176 341.706V333.12C267.176 328.827 265.408 324.741 262.174 321.504L262.282 320.595C262.685 317.185 261.629 313.868 259.307 311.256C256.864 308.508 253.302 306.932 249.532 306.932H249.158C249.474 306.527 249.785 306.118 250.09 305.707C250.477 305.272 250.795 304.883 251.062 304.521C255.048 299.107 258.056 293.172 260.015 286.862C263.847 286.311 267.341 284.464 269.975 281.57C272.981 278.267 274.521 273.99 274.311 269.529L273.732 257.222C273.521 252.76 271.587 248.647 268.282 245.642C265.352 242.975 261.6 241.446 257.655 241.299C254.604 234.183 250.32 227.706 244.907 222.028C232.903 209.435 216.714 202.272 199.323 201.855C198.777 201.842 198.222 201.834 197.678 201.834C180.924 201.834 164.995 208.223 152.825 219.824C144.914 227.365 139.024 236.749 135.73 247.038C131.808 247.546 128.23 249.407 125.537 252.365C122.531 255.668 120.992 259.944 121.201 264.406L121.78 276.713C122.193 285.46 129.228 292.353 137.913 292.639C140.113 297.752 142.949 302.541 146.373 306.933H146.063C142.292 306.933 138.729 308.509 136.287 311.257C134.078 313.743 133.015 316.865 133.265 320.1C132.038 321.09 130.956 322.21 130.036 323.441C127.869 326.321 126.722 329.671 126.722 333.121V344.085C122.286 350.188 118.737 356.715 116.171 363.495C112.148 374.123 111.97 382.469 115.64 388.302H114.411C119.467 392.489 124.825 396.306 130.445 399.708C150.811 399.33 173.657 399.117 197.796 399.117C221.935 399.117 244.783 399.33 265.148 399.708C270.769 396.306 276.126 392.489 281.183 388.302H280.046C283.716 382.468 283.538 374.123 279.515 363.494Z" fill="white"/>
<path d="M263.613 333.12V377.707C263.613 379.784 263.078 381.763 262.111 383.543C259.47 388.44 253.618 391.864 246.863 391.864H147.035C141.356 391.864 136.315 389.447 133.283 385.765C131.396 383.475 130.285 380.698 130.285 377.707V333.12C130.285 330.353 131.24 327.766 132.886 325.577C135.855 321.609 141.097 318.963 147.035 318.963H246.863C247.668 318.963 248.457 319.011 249.234 319.109C257.335 320.086 263.613 326.015 263.613 333.12Z" fill="white"/>
<path d="M246.863 393.365H147.035C141.126 393.365 135.552 390.88 132.125 386.719C129.94 384.068 128.785 380.951 128.785 377.707V333.12C128.785 330.12 129.788 327.201 131.687 324.676C135.064 320.161 140.803 317.463 147.035 317.463H246.863C247.723 317.463 248.584 317.516 249.419 317.621C258.364 318.7 265.113 325.364 265.113 333.121V377.708C265.113 379.998 264.547 382.202 263.429 384.261C260.448 389.789 253.944 393.365 246.863 393.365ZM147.035 320.463C141.744 320.463 136.904 322.712 134.088 326.477C132.581 328.48 131.786 330.777 131.786 333.121V377.708C131.786 380.247 132.704 382.705 134.441 384.812C137.305 388.29 142.014 390.366 147.036 390.366H246.864C252.857 390.366 258.324 387.409 260.792 382.832C261.67 381.215 262.114 379.493 262.114 377.708V333.121C262.114 326.881 256.5 321.498 249.055 320.599C248.336 320.51 247.601 320.464 246.864 320.464H147.035V320.463Z" fill="#371A45"/>
<path d="M198.22 306.568C232.327 312.207 264.139 332.927 276.184 364.755C285.918 390.478 268.238 391.864 268.238 391.864H197.52H198.168H127.45C127.45 391.864 109.77 390.478 119.504 364.755C131.55 332.927 163.36 312.208 197.468 306.568" fill="white"/>
<g opacity="0.35">
<path opacity="0.35" d="M268.235 391.865H127.448C127.448 391.865 115.079 390.894 116.733 375.525C116.757 375.71 116.783 375.893 116.811 376.072C118.001 383.596 128.244 385.068 131.664 378.262L133.211 375.183H262.37L264.027 378.425C267.483 385.183 277.62 383.676 278.857 376.188C278.893 375.971 278.925 375.751 278.953 375.526C280.608 390.894 268.235 391.865 268.235 391.865Z" fill="#371A45"/>
</g>
<path d="M121.688 376.462C121.688 376.462 128.423 356.153 146.56 356.096C163.295 356.042 169.685 364.39 165.764 375.853C163.813 381.558 142.967 386.95 133.211 375.182" fill="white"/>
<g opacity="0.35">
<path opacity="0.35" d="M165.766 375.854C163.812 381.558 142.967 386.947 133.212 375.182C133.212 373.122 135.495 371.915 137.222 373.04C147.77 379.917 164.05 375.15 165.766 370.142C166.141 369.051 166.419 367.986 166.607 366.955C167.161 369.587 166.88 372.595 165.766 375.854Z" fill="#371A45"/>
</g>
<path d="M121.213 376.304C121.249 373.919 122.064 371.777 123.121 369.777C124.158 367.761 125.515 365.913 127.027 364.207C128.556 362.516 130.181 360.89 132.035 359.513C133.883 358.135 135.921 356.98 138.095 356.148C140.266 355.31 142.572 354.814 144.885 354.658L146.62 354.595C147.182 354.604 147.743 354.604 148.305 354.622C149.43 354.666 150.557 354.733 151.685 354.868C153.938 355.127 156.2 355.58 158.392 356.391C160.579 357.189 162.711 358.378 164.47 360.085C166.238 361.777 167.509 364.057 168.028 366.45C168.559 368.847 168.448 371.296 167.948 373.575C167.838 374.152 167.674 374.709 167.523 375.271L167.261 376.098L167.195 376.304C167.173 376.374 167.124 376.48 167.089 376.565L166.847 377.101C166.093 378.399 165.085 379.218 164.081 379.913C162.045 381.274 159.858 382.074 157.64 382.68C153.196 383.818 148.53 384.033 143.995 383.082C143.429 382.961 142.865 382.83 142.309 382.661C141.747 382.517 141.2 382.312 140.649 382.123C140.099 381.934 139.563 381.696 139.013 381.491C138.484 381.239 137.93 381.028 137.418 380.733C136.902 380.446 136.385 380.155 135.924 379.779C135.441 379.436 135.004 379.031 134.593 378.604C133.775 377.748 133.133 376.706 132.829 375.501C132.755 375.205 132.935 374.905 133.231 374.831C133.338 374.804 133.446 374.81 133.543 374.843L133.599 374.862C134.186 375.062 134.642 375.341 135.12 375.585C135.605 375.822 136.012 376.119 136.459 376.364C136.676 376.494 136.884 376.633 137.09 376.774C137.302 376.906 137.524 377.025 137.73 377.162C137.946 377.287 138.141 377.44 138.36 377.56C138.577 377.683 138.788 377.814 138.998 377.948C140.671 379.055 142.627 379.717 144.618 380.146C148.617 380.991 152.889 380.802 156.873 379.776C158.85 379.243 160.805 378.501 162.396 377.427C163.182 376.902 163.87 376.26 164.213 375.662C164.24 375.59 164.27 375.52 164.303 375.451C164.319 375.411 164.336 375.396 164.355 375.336L164.413 375.153L164.644 374.423C164.773 373.933 164.92 373.444 165.013 372.949C165.448 370.981 165.513 368.972 165.101 367.109C164.691 365.246 163.753 363.555 162.372 362.228C161 360.895 159.253 359.895 157.353 359.204C155.455 358.499 153.416 358.085 151.344 357.847C150.308 357.722 149.259 357.66 148.208 357.619L146.626 357.594L145.094 357.65C143.061 357.787 141.058 358.219 139.164 358.95C135.377 360.409 131.998 362.97 129.395 366.208C128.751 367.023 128.133 367.859 127.551 368.724C126.957 369.58 126.385 370.453 125.82 371.336C124.704 373.109 123.6 374.901 122.164 376.617L122.139 376.646C121.954 376.867 121.624 376.897 121.402 376.712C121.276 376.609 121.212 376.456 121.213 376.304Z" fill="#371A45"/>
<path d="M273.895 376.462C273.895 376.462 267.159 356.153 249.022 356.096C232.287 356.042 225.897 364.39 229.818 375.853C231.769 381.558 252.615 386.95 262.371 375.182" fill="white"/>
<path d="M273.895 376.462C273.895 376.462 267.159 356.153 249.022 356.096C232.287 356.042 225.897 364.39 229.818 375.853C231.769 381.558 252.615 386.95 262.371 375.182L273.895 376.462Z" fill="white"/>
<g opacity="0.35">
<path opacity="0.35" d="M262.37 375.182C252.615 386.947 231.77 381.558 229.816 375.854C228.702 372.595 228.421 369.587 228.976 366.954C229.163 367.985 229.441 369.05 229.816 370.141C231.532 375.15 247.812 379.916 258.361 373.039C260.086 371.915 262.37 373.123 262.37 375.182Z" fill="#371A45"/>
</g>
<path d="M273.42 376.62C271.985 374.904 270.88 373.113 269.764 371.339C269.199 370.456 268.627 369.584 268.033 368.728C267.451 367.862 266.833 367.026 266.189 366.211C263.586 362.973 260.208 360.412 256.42 358.953C254.526 358.221 252.524 357.79 250.49 357.653L248.959 357.597L247.377 357.622C246.326 357.664 245.276 357.725 244.24 357.85C242.169 358.087 240.128 358.503 238.231 359.207C236.332 359.897 234.585 360.898 233.212 362.232C231.831 363.558 230.893 365.248 230.483 367.113C230.071 368.976 230.136 370.985 230.571 372.953C230.664 373.447 230.81 373.935 230.94 374.426L231.171 375.156L231.229 375.339C231.249 375.399 231.265 375.414 231.282 375.455C231.315 375.524 231.344 375.593 231.371 375.665C231.715 376.263 232.403 376.906 233.188 377.43C234.78 378.504 236.734 379.246 238.711 379.78C242.697 380.805 246.967 380.994 250.966 380.149C252.958 379.72 254.914 379.058 256.586 377.951C256.796 377.817 257.008 377.685 257.224 377.563C257.443 377.443 257.639 377.29 257.854 377.165C258.06 377.027 258.282 376.909 258.495 376.778C258.7 376.636 258.908 376.497 259.125 376.367C259.572 376.121 259.98 375.824 260.464 375.589C260.942 375.344 261.399 375.065 261.985 374.866L262.042 374.846C262.331 374.748 262.644 374.903 262.742 375.192C262.779 375.297 262.781 375.404 262.755 375.504C262.452 376.71 261.809 377.751 260.991 378.607C260.58 379.034 260.144 379.439 259.66 379.782C259.199 380.158 258.682 380.449 258.167 380.737C257.654 381.032 257.101 381.242 256.571 381.495C256.022 381.699 255.485 381.937 254.935 382.126C254.384 382.316 253.837 382.519 253.275 382.664C252.719 382.834 252.155 382.964 251.589 383.085C247.054 384.036 242.387 383.82 237.945 382.683C235.726 382.077 233.539 381.277 231.503 379.916C230.499 379.221 229.491 378.402 228.737 377.105L228.495 376.568C228.459 376.483 228.412 376.378 228.389 376.307L228.323 376.101L228.061 375.274C227.91 374.712 227.745 374.156 227.636 373.579C227.136 371.3 227.025 368.85 227.557 366.454C228.075 364.059 229.345 361.78 231.114 360.089C232.873 358.381 235.005 357.192 237.192 356.395C239.384 355.583 241.646 355.131 243.899 354.871C245.026 354.736 246.153 354.669 247.28 354.625C247.842 354.607 248.404 354.607 248.965 354.598L250.698 354.661C253.012 354.817 255.317 355.313 257.488 356.151C259.662 356.983 261.7 358.138 263.548 359.516C265.402 360.893 267.027 362.52 268.556 364.211C270.069 365.915 271.425 367.764 272.461 369.78C273.518 371.78 274.334 373.922 274.369 376.307C274.373 376.596 274.142 376.834 273.853 376.838C273.69 376.841 273.543 376.768 273.446 376.653L273.42 376.62Z" fill="#371A45"/>
<path d="M268.296 393.364L127.333 393.36C127.073 393.34 120.936 392.798 117.414 387.248C114.078 381.991 114.309 374.245 118.101 364.225C129.569 333.921 159.887 311.262 197.223 305.088C197.436 305.053 197.647 305.064 197.844 305.116C198.041 305.064 198.251 305.053 198.464 305.088C235.801 311.261 266.119 333.921 277.586 364.225C281.378 374.244 281.609 381.991 278.273 387.248C274.752 392.798 268.614 393.34 268.355 393.36L268.296 393.364ZM198.167 390.364H268.167C268.703 390.308 273.177 389.717 275.762 385.605C278.501 381.248 278.162 374.222 274.78 365.286C263.69 335.981 234.26 314.047 197.975 308.049C197.93 308.041 197.886 308.032 197.844 308.021C197.801 308.031 197.757 308.041 197.713 308.049C161.429 314.047 131.998 335.981 120.908 365.286C117.526 374.222 117.187 381.248 119.926 385.605C122.504 389.707 126.963 390.305 127.522 390.364H198.167Z" fill="#371A45"/>
<path d="M258.226 283.46C257.534 283.493 256.947 282.957 256.915 282.266L255.215 246.176C255.182 245.484 255.717 244.896 256.409 244.864C263.668 244.522 269.831 250.13 270.173 257.39L270.752 269.697C271.094 276.956 265.485 283.118 258.226 283.46Z" fill="white"/>
<path d="M258.167 283.731C257.359 283.731 256.684 283.093 256.645 282.279L254.946 246.189C254.907 245.35 255.557 244.635 256.396 244.596C263.796 244.246 270.093 249.981 270.442 257.379L271.021 269.685C271.19 273.267 269.954 276.701 267.54 279.355C265.126 282.007 261.823 283.561 258.24 283.731C258.215 283.73 258.19 283.731 258.167 283.731ZM257.034 245.119C256.831 245.119 256.626 245.124 256.421 245.133C255.878 245.159 255.457 245.621 255.483 246.164L257.183 282.253C257.209 282.795 257.671 283.212 258.213 283.19C265.312 282.856 270.816 276.808 270.482 269.708L269.902 257.402C269.579 250.508 263.865 245.119 257.034 245.119Z" fill="#371A45"/>
<g opacity="0.35">
<path opacity="0.35" d="M270.48 263.925L270.753 269.697C271.094 276.954 265.487 283.117 258.226 283.462C257.535 283.495 256.948 282.957 256.915 282.266L256.46 272.672C256.674 273.1 257.127 273.382 257.635 273.362L258.491 273.32C264.226 273.05 268.934 269.142 270.48 263.925Z" fill="#371A45"/>
</g>
<path d="M258.166 284.961C256.705 284.961 255.484 283.809 255.415 282.335L253.716 246.246C253.645 244.729 254.82 243.437 256.337 243.365C264.406 242.984 271.29 249.244 271.67 257.319L272.25 269.625C272.63 277.699 266.37 284.577 258.297 284.958C258.253 284.96 258.209 284.961 258.166 284.961ZM256.725 246.353L258.401 281.947C264.704 281.519 269.552 276.106 269.253 269.766L268.673 257.46C268.375 251.121 263.03 246.183 256.725 246.353Z" fill="#371A45"/>
<path d="M137.285 250.474C137.977 250.441 138.565 250.976 138.597 251.668L140.297 287.758C140.33 288.45 139.795 289.037 139.103 289.069C131.843 289.412 125.681 283.804 125.339 276.544L124.76 264.236C124.418 256.978 130.026 250.816 137.285 250.474Z" fill="white"/>
<path d="M138.478 289.354C131.36 289.354 125.409 283.74 125.071 276.557L124.492 264.251C124.322 260.668 125.559 257.234 127.973 254.581C130.387 251.928 133.689 250.374 137.273 250.205C138.116 250.165 138.827 250.817 138.866 251.655L140.566 287.745C140.605 288.585 139.954 289.299 139.116 289.339C138.903 289.349 138.689 289.354 138.478 289.354ZM137.298 250.743C130.199 251.078 124.695 257.126 125.029 264.225L125.608 276.531C125.943 283.631 131.988 289.129 139.09 288.8C139.633 288.775 140.053 288.313 140.028 287.77L138.328 251.681C138.302 251.138 137.83 250.713 137.298 250.743Z" fill="#371A45"/>
<g opacity="0.35">
<path opacity="0.35" d="M139.829 277.746L140.299 287.758C140.332 288.45 139.794 289.036 139.103 289.07C135.292 289.248 131.781 287.79 129.257 285.309C126.978 283.07 125.504 279.994 125.341 276.548L125.097 271.363C127.372 275.816 132.113 278.768 137.435 278.519L138.752 278.457C139.233 278.431 139.629 278.146 139.829 277.746Z" fill="#371A45"/>
</g>
<path d="M138.477 290.584C130.707 290.584 124.211 284.455 123.841 276.615L123.261 264.308C122.881 256.235 129.141 249.356 137.214 248.976C138.732 248.91 140.023 250.08 140.095 251.597L141.794 287.687C141.865 289.204 140.69 290.496 139.173 290.569C138.942 290.579 138.708 290.584 138.477 290.584ZM137.111 251.987C130.808 252.415 125.96 257.828 126.259 264.167L126.839 276.473C127.137 282.813 132.476 287.745 138.787 287.58L137.111 251.987Z" fill="#371A45"/>
<path d="M197.763 328.534C231.766 328.534 259.331 300.969 259.331 266.966C259.331 232.964 231.766 205.399 197.763 205.399C163.76 205.399 136.196 232.964 136.196 266.966C136.196 300.969 163.76 328.534 197.763 328.534Z" fill="white"/>
<path d="M197.785 328.804C197.284 328.804 196.788 328.798 196.284 328.786C162.197 327.97 135.129 299.574 135.945 265.486C136.34 248.974 143.142 233.604 155.098 222.207C167.053 210.811 182.73 204.757 199.244 205.147C215.757 205.542 231.127 212.344 242.524 224.3C253.921 236.255 259.98 251.933 259.585 268.446C258.779 302.03 231.198 328.804 197.785 328.804ZM197.725 205.668C181.91 205.668 166.957 211.646 155.469 222.597C143.617 233.895 136.875 249.13 136.483 265.5C135.675 299.289 162.507 327.439 196.298 328.247C230.079 329.057 258.236 302.223 259.045 268.434L259.314 268.44L259.045 268.434C259.437 252.065 253.431 236.523 242.134 224.672C230.836 212.821 215.6 206.078 199.231 205.686C198.728 205.674 198.225 205.668 197.725 205.668Z" fill="#371A45"/>
<g opacity="0.35">
<path opacity="0.35" d="M258.928 259.905C259.253 262.698 259.384 265.546 259.314 268.44C258.497 302.431 230.281 329.329 196.29 328.518C162.298 327.701 135.4 299.485 136.211 265.493C136.234 264.516 136.28 263.538 136.35 262.576C139.782 292.637 164.939 316.321 196.041 317.066C229.056 317.853 256.616 292.507 258.928 259.905Z" fill="#371A45"/>
</g>
<path d="M197.785 330.035C197.273 330.035 196.768 330.028 196.254 330.016C161.489 329.184 133.882 300.223 134.713 265.458C135.546 230.692 164.486 203.088 199.272 203.917C216.114 204.32 231.789 211.257 243.413 223.451C255.037 235.645 261.216 251.634 260.813 268.476C259.993 302.728 231.863 330.035 197.785 330.035ZM197.726 206.899C182.228 206.899 167.576 212.758 156.318 223.489C144.704 234.56 138.097 249.49 137.713 265.53C136.921 298.642 163.215 326.225 196.327 327.017C229.43 327.812 257.021 301.516 257.814 268.404C258.607 235.292 232.313 207.709 199.201 206.917C198.709 206.904 198.216 206.899 197.726 206.899ZM259.313 268.44H259.319H259.313Z" fill="#371A45"/>
<path d="M259.079 270.016C258.973 282.063 254.964 293.213 248.193 302.409C243.117 309.303 222.398 321.262 196.943 321.267C173.341 321.271 151.979 308.498 147.027 301.516C140.421 292.202 136.608 280.983 136.714 268.936C136.996 237.055 164.503 224.08 198.294 224.378C232.086 224.677 259.36 238.135 259.079 270.016Z" fill="#371A45"/>
<path d="M196.933 322.767C172.516 322.767 150.993 309.701 145.803 302.384C138.769 292.471 135.108 280.9 135.214 268.923C135.352 253.319 141.714 241.344 154.124 233.329C164.959 226.332 180.238 222.709 198.308 222.877C216.379 223.037 231.591 226.92 242.3 234.107C254.566 242.338 260.717 254.425 260.579 270.028C260.473 282.004 256.607 293.509 249.401 303.297C244.404 310.084 223.887 322.761 196.943 322.766C196.94 322.767 196.936 322.767 196.933 322.767ZM197.161 225.873C180.17 225.873 165.87 229.316 155.751 235.85C144.242 243.282 138.341 254.418 138.214 268.948C138.114 280.29 141.584 291.252 148.25 300.647C152.983 307.32 173.876 319.766 196.934 319.766C196.938 319.766 196.939 319.766 196.943 319.766C222.5 319.762 242.449 307.681 246.986 301.518C253.816 292.241 257.479 281.343 257.579 270.001C257.926 230.652 216.226 226.036 198.281 225.877C197.907 225.875 197.532 225.873 197.161 225.873ZM259.079 270.016H259.084H259.079Z" fill="#371A45"/>
<g opacity="0.7">
<path opacity="0.7" d="M247.002 266.982C248.128 261.071 245.567 255.618 241.283 254.802C237 253.987 232.615 258.118 231.489 264.03C230.364 269.941 232.925 275.394 237.208 276.21C241.492 277.025 245.877 272.894 247.002 266.982Z" fill="white"/>
</g>
<g opacity="0.7">
<path opacity="0.7" d="M233.43 288.382C234.316 285.767 233.215 283.03 230.97 282.269C228.726 281.509 226.188 283.013 225.301 285.628C224.415 288.244 225.516 290.981 227.761 291.741C230.005 292.502 232.543 290.998 233.43 288.382Z" fill="white"/>
</g>
<g opacity="0.35">
<path opacity="0.35" d="M247.441 240.169C254.858 247.372 259.19 257.209 259.078 270.014C258.972 282.064 254.96 293.213 248.195 302.409C243.118 309.303 222.397 321.263 196.942 321.269C187.955 321.273 179.294 319.421 171.737 316.738C203.027 316.063 228.267 301.382 234.561 292.832C243.153 281.163 248.242 267.008 248.375 251.721C248.414 247.635 248.087 243.787 247.441 240.169Z" fill="#111A28"/>
</g>
<path d="M254.058 243.511C253.725 243.511 253.389 243.4 253.11 243.17L252.953 243.04L252.827 242.866C242.571 228.214 222.586 219.687 197.994 219.469C173.286 219.239 153.149 227.697 142.804 242.638L142.729 242.738C142.203 243.378 141.253 243.473 140.613 242.946C139.993 242.434 139.884 241.532 140.362 240.895C151.289 225.145 172.321 216.238 198.021 216.47C223.577 216.696 244.439 225.679 255.264 241.115C255.664 241.657 255.665 242.421 255.218 242.964C254.92 243.323 254.49 243.511 254.058 243.511Z" fill="#371A45"/>
<g opacity="0.7">
<path opacity="0.7" d="M150.287 288.024C150.287 288.024 140.69 256.485 157.75 244.102C174.81 231.719 199.196 231.985 198.612 233.543C198.612 233.543 171.558 239.841 160.806 261.09C152.515 277.476 150.287 288.024 150.287 288.024Z" fill="white"/>
</g>
<path d="M77.177 403.518C82.2024 402.723 87.2288 402.532 92.2542 402.434C94.7674 402.381 97.2806 402.369 99.7927 402.384C102.306 402.38 104.818 402.416 107.331 402.443C112.357 402.489 117.383 402.501 122.408 402.494H137.486H197.797H258.107H288.262L295.801 402.491L299.57 402.454L303.339 402.39C308.365 402.373 313.391 402.418 318.416 403.518C318.699 403.58 318.878 403.86 318.817 404.142C318.771 404.348 318.61 404.5 318.416 404.542C313.391 405.643 308.365 405.688 303.339 405.671L299.57 405.607L295.801 405.57L288.262 405.566H258.107H197.797H137.488H122.411C117.385 405.559 112.359 405.571 107.333 405.618C104.82 405.644 102.308 405.681 99.7948 405.677C97.2816 405.69 94.7694 405.68 92.2562 405.626C87.2309 405.528 82.2044 405.337 77.1791 404.542C76.8965 404.498 76.7026 404.232 76.748 403.949C76.782 403.723 76.9615 403.553 77.177 403.518Z" fill="#371A45"/>
<path d="M294.947 403.428H100.647C97.5043 403.428 94.9571 400.881 94.9571 397.738V397.554C94.9571 394.411 97.5043 391.864 100.647 391.864H294.947C298.089 391.864 300.636 394.411 300.636 397.554V397.738C300.636 400.881 298.089 403.428 294.947 403.428Z" fill="#371A45"/>
<path d="M294.947 403.644H100.647C97.3909 403.644 94.7416 400.995 94.7416 397.738V397.553C94.7416 394.297 97.3909 391.648 100.647 391.648H294.947C298.203 391.648 300.852 394.297 300.852 397.553V397.738C300.853 400.995 298.204 403.644 294.947 403.644ZM100.647 392.081C97.6291 392.081 95.1737 394.535 95.1737 397.553V397.738C95.1737 400.756 97.6291 403.211 100.647 403.211H294.947C297.964 403.211 300.42 400.757 300.42 397.738V397.553C300.42 394.535 297.964 392.081 294.947 392.081H100.647Z" fill="#371A45"/>
<path d="M294.947 404.927H100.647C96.6824 404.927 93.4576 401.702 93.4576 397.738V397.552C93.4576 393.588 96.6824 390.364 100.647 390.364H294.947C298.911 390.364 302.136 393.588 302.136 397.552V397.738C302.137 401.702 298.911 404.927 294.947 404.927ZM100.647 393.365C98.3365 393.365 96.4576 395.243 96.4576 397.554V397.739C96.4576 400.049 98.3365 401.928 100.647 401.928H294.947C297.257 401.928 299.136 400.049 299.136 397.739V397.554C299.136 395.245 297.257 393.365 294.947 393.365H100.647Z" fill="#371A45"/>
<g opacity="0.5">
<path opacity="0.5" d="M295.039 393.577H132.649H119.053H100.556C98.384 393.577 96.6164 395.402 96.6164 397.645C96.6164 399.289 97.5672 400.706 98.9295 401.346C98.517 400.703 98.2747 399.934 98.2747 399.106C98.2747 396.863 100.042 395.037 102.214 395.037H118.874C119.736 396.025 122.53 396.75 125.851 396.75C129.171 396.75 131.965 396.025 132.827 395.037H296.697C297.278 395.037 297.826 395.17 298.323 395.404C297.617 394.305 296.409 393.577 295.039 393.577Z" fill="white"/>
</g>
<path d="M252.769 391.402H142.755C137.763 391.402 133.715 387.354 133.715 382.362V381.901H261.809V382.362C261.809 387.354 257.762 391.402 252.769 391.402Z" fill="#C5D3E2"/>
<g opacity="0.35">
<path opacity="0.35" d="M261.811 381.9V382.361C261.811 387.352 257.76 391.403 252.769 391.403H142.757C137.762 391.403 133.715 387.352 133.715 382.361V381.9H134.116C135.253 385.591 138.692 388.275 142.757 388.275H252.769C256.831 388.275 260.274 385.59 261.41 381.9H261.811Z" fill="#371A45"/>
</g>
<path d="M252.769 392.901H142.755C136.943 392.901 132.216 388.173 132.216 382.361V380.399H263.31V382.361C263.31 388.173 258.581 392.901 252.769 392.901ZM135.288 383.4C135.795 387.069 138.951 389.902 142.756 389.902H252.77C256.575 389.902 259.731 387.068 260.238 383.4H135.288Z" fill="#371A45"/>
<g opacity="0.6">
<path opacity="0.6" d="M139.489 384.898H259.667C259.821 384.485 259.942 384.056 260.024 383.613H135.501C136.018 386.422 138.062 388.679 140.704 389.424C139.741 388.66 138.965 387.655 138.47 386.493C138.15 385.743 138.694 384.898 139.489 384.898Z" fill="white"/>
</g>
<path d="M242.041 391.303H153.554C148.832 391.303 144.863 387.963 144.341 383.548L136.851 320.178C136.241 315.012 140.539 310.495 146.064 310.495H249.532C255.056 310.495 259.355 315.013 258.744 320.178L251.254 383.548C250.731 387.963 246.763 391.303 242.041 391.303Z" fill="#CBCBCB"/>
<g opacity="0.6">
<path opacity="0.6" d="M203.98 357.787C203.997 357.78 204.015 357.773 204.032 357.765C204.577 357.539 205.084 358.13 204.776 358.635C203.89 360.08 202.545 361.263 200.841 361.945C196.986 363.485 192.511 361.837 190.586 358.159C188.364 353.918 190.228 348.754 194.542 346.868C196.173 346.154 197.911 346.016 199.529 346.365C200.062 346.479 200.139 347.208 199.639 347.426L199.623 347.433C196.645 348.736 195.367 352.306 196.92 355.227C198.256 357.742 201.342 358.858 203.98 357.787Z" fill="white"/>
</g>
<path d="M243.491 326.948C243.461 326.12 243.444 325.281 243.16 324.477C243.075 324.397 242.996 324.316 242.911 324.237C242.663 324.187 242.416 324.111 242.162 324.086C240.37 323.9 238.593 323.988 236.839 324.409C234.552 324.958 232.532 325.994 230.926 327.743C230.344 328.374 229.829 329.066 229.299 329.74C229.157 329.924 229.04 330.009 228.791 329.937C228.206 329.77 227.6 329.749 226.996 329.809C225.377 329.978 224.022 330.713 222.812 331.755C221.5 332.886 220.516 334.282 219.625 335.753C219.246 336.376 219.519 336.967 220.243 337.094C220.7 337.171 221.155 337.245 221.612 337.321C222.705 337.502 223.796 337.679 224.887 337.86C224.89 337.893 224.895 337.909 224.892 337.926C224.887 337.947 224.88 337.972 224.87 337.994C224.521 338.617 224.703 339.117 225.233 339.532C225.291 339.579 225.342 339.636 225.394 339.688C225.681 339.967 225.974 340.248 226.277 340.538C225.97 340.858 225.664 341.136 225.405 341.456C225.274 341.617 225.17 341.838 225.143 342.046C225.094 342.382 225.31 342.685 225.622 342.811C225.953 342.948 226.264 342.892 226.516 342.647C226.836 342.338 227.137 342.01 227.459 341.676C227.871 342.079 228.262 342.458 228.653 342.832C229.101 343.258 229.372 343.303 229.93 343.054C230.031 343.005 230.132 342.966 230.252 342.918C230.279 343.041 230.304 343.14 230.323 343.233C230.624 344.725 230.92 346.219 231.228 347.706C231.372 348.412 231.985 348.662 232.581 348.261C233.119 347.9 233.654 347.524 234.177 347.13C235.38 346.22 236.44 345.167 237.216 343.864C238.187 342.224 238.599 340.495 238.001 338.615C237.977 338.54 238.021 338.401 238.081 338.353C238.608 337.888 239.154 337.445 239.682 336.978C240.873 335.918 241.767 334.639 242.395 333.177C243.247 331.189 243.57 329.101 243.491 326.948ZM225.531 336.308C224.269 336.097 222.959 335.879 221.615 335.655C222.727 334.048 223.944 332.607 225.753 331.804C226.535 331.456 227.48 331.334 228.07 331.476C227.231 333.078 226.389 334.679 225.531 336.308ZM236.584 340.967C236.425 341.989 235.961 342.872 235.349 343.688C234.587 344.694 233.643 345.5 232.608 346.262C232.331 344.891 232.058 343.549 231.791 342.234C233.392 341.316 234.958 340.419 236.533 339.518C236.667 339.97 236.662 340.47 236.584 340.967ZM241.47 330.766C241.118 332.14 240.576 333.424 239.7 334.553C239.022 335.42 238.216 336.155 237.353 336.829C235.011 338.66 232.417 340.071 229.739 341.336C229.608 341.396 229.523 341.402 229.414 341.29C229.176 341.041 228.917 340.806 228.668 340.563C228.652 340.549 228.644 340.524 228.617 340.478C228.68 340.41 228.748 340.342 228.816 340.271C230.232 338.8 231.655 337.333 233.071 335.86C233.48 335.439 233.41 334.833 232.928 334.548C232.592 334.349 232.198 334.411 231.893 334.724C231.04 335.603 230.19 336.484 229.341 337.366C228.706 338.022 228.078 338.674 227.419 339.358C227.113 339.063 226.821 338.795 226.55 338.508C226.504 338.457 226.52 338.306 226.561 338.227C227.222 336.825 227.876 335.418 228.575 334.032C229.266 332.657 230.092 331.359 231.032 330.141C231.912 328.99 232.895 327.943 234.166 327.217C234.981 326.75 235.839 326.386 236.746 326.149C236.829 326.124 236.962 326.19 237.033 326.258C238.153 327.329 239.262 328.403 240.375 329.48C240.708 329.799 241.039 330.127 241.381 330.442C241.482 330.537 241.507 330.626 241.47 330.766ZM241.772 328.987C240.662 327.913 239.58 326.868 238.495 325.82C238.492 325.792 238.495 325.76 238.495 325.73C239.569 325.697 240.645 325.667 241.733 325.634C241.886 326.787 241.876 327.867 241.772 328.987Z" fill="#371A45"/>
<path d="M241.381 330.441C241.039 330.126 240.708 329.798 240.375 329.479C239.262 328.402 238.154 327.328 237.033 326.257C236.962 326.189 236.828 326.123 236.746 326.148C235.839 326.386 234.981 326.749 234.166 327.216C232.895 327.943 231.912 328.99 231.032 330.14C230.091 331.359 229.266 332.657 228.575 334.031C227.876 335.417 227.222 336.823 226.561 338.226C226.52 338.305 226.504 338.456 226.55 338.507C226.82 338.794 227.113 339.062 227.419 339.357C228.078 338.674 228.706 338.021 229.341 337.365C230.19 336.482 231.04 335.602 231.893 334.723C232.199 334.411 232.592 334.348 232.928 334.547C233.409 334.832 233.48 335.438 233.071 335.859C231.655 337.332 230.232 338.799 228.816 340.27C228.748 340.341 228.68 340.409 228.617 340.477C228.643 340.524 228.652 340.548 228.668 340.562C228.917 340.805 229.177 341.04 229.414 341.289C229.523 341.401 229.608 341.395 229.739 341.335C232.417 340.07 235.01 338.66 237.352 336.829C238.216 336.153 239.022 335.419 239.7 334.552C240.577 333.424 241.118 332.139 241.47 330.765C241.506 330.626 241.482 330.537 241.381 330.441ZM238.85 332.717C237.765 333.823 235.999 333.859 234.898 332.791C233.792 331.726 233.764 329.96 234.835 328.842C235.887 327.746 237.656 327.722 238.765 328.788C239.864 329.848 239.905 331.637 238.85 332.717Z" fill="white"/>
<path d="M241.772 328.986C240.662 327.913 239.579 326.869 238.495 325.819C238.494 325.79 238.495 325.76 238.495 325.729C239.57 325.698 240.646 325.667 241.735 325.633C241.887 326.786 241.875 327.866 241.772 328.986Z" fill="#DB2C2C"/>
<path d="M228.07 331.476C227.23 333.076 226.388 334.678 225.531 336.309C224.267 336.096 222.958 335.879 221.614 335.655C222.727 334.046 223.943 332.605 225.753 331.804C226.534 331.456 227.478 331.334 228.07 331.476Z" fill="#DB2C2C"/>
<path d="M235.348 343.69C234.586 344.695 233.644 345.503 232.608 346.264C232.331 344.893 232.059 343.551 231.791 342.235C233.392 341.318 234.958 340.422 236.534 339.518C236.668 339.97 236.661 340.469 236.585 340.969C236.428 341.99 235.962 342.873 235.348 343.69Z" fill="#DB2C2C"/>
<path d="M238.765 328.788C237.656 327.722 235.888 327.746 234.835 328.842C233.764 329.96 233.792 331.726 234.898 332.791C236 333.859 237.765 333.824 238.85 332.717C239.905 331.637 239.864 329.848 238.765 328.788ZM237.872 331.824C237.323 332.387 236.393 332.4 235.817 331.854C235.221 331.291 235.216 330.331 235.804 329.742C236.353 329.184 237.301 329.179 237.861 329.73C238.446 330.304 238.449 331.233 237.872 331.824Z" fill="#371A45"/>
<path d="M237.871 331.824C237.322 332.387 236.392 332.4 235.815 331.852C235.222 331.29 235.215 330.331 235.801 329.741C236.352 329.184 237.299 329.178 237.859 329.729C238.445 330.303 238.45 331.234 237.871 331.824Z" fill="#22A7F0"/>
<g opacity="0.35">
<path opacity="0.35" d="M246.975 383.725L254.466 320.355C254.672 318.624 254.136 316.914 252.96 315.542C251.628 313.988 249.657 313.079 247.519 313.005C247.52 313.001 247.522 312.995 247.523 312.991C244.461 323.513 227.381 382.195 146.456 384.425C147.172 387.456 150.096 389.662 153.553 389.662H239.751C243.47 389.663 246.576 387.11 246.975 383.725Z" fill="#371A45"/>
</g>
<g opacity="0.6">
<path opacity="0.6" d="M148.588 384.792L141.098 321.421C140.882 319.587 141.446 317.779 142.687 316.33C144.142 314.632 146.32 313.659 148.663 313.659H252.132C252.937 313.659 253.72 313.782 254.463 314.001C254.31 313.771 254.145 313.546 253.96 313.331C252.505 311.633 250.327 310.66 247.985 310.66H144.517C142.175 310.66 139.997 311.633 138.541 313.331C137.299 314.78 136.734 316.588 136.951 318.422L144.441 381.793C144.775 384.61 146.881 386.874 149.671 387.7C149.098 386.841 148.714 385.857 148.588 384.792Z" fill="white"/>
</g>
<path d="M242.041 392.803H153.554C148.064 392.803 143.464 388.899 142.852 383.723L135.362 320.353C135.029 317.536 135.906 314.791 137.83 312.626C139.881 310.318 142.882 308.994 146.064 308.994H249.532C252.713 308.994 255.714 310.318 257.766 312.626C259.69 314.791 260.566 317.536 260.233 320.353L252.743 383.723C252.131 388.899 247.53 392.803 242.041 392.803ZM146.064 311.995C143.739 311.995 141.555 312.952 140.072 314.619C138.725 316.135 138.111 318.046 138.342 320L145.832 383.371C146.265 387.038 149.584 389.803 153.554 389.803H242.041C246.01 389.803 249.33 387.038 249.763 383.371L257.253 320C257.484 318.046 256.869 316.134 255.523 314.619C254.04 312.951 251.856 311.995 249.531 311.995H146.064Z" fill="#371A45"/>
<g opacity="0.35">
<path opacity="0.35" d="M103.659 403.428H295.038C298.129 403.428 300.635 400.839 300.635 397.646C300.635 394.453 298.129 391.865 295.038 391.865H217.98C214.935 393.582 192.105 404.221 97.8601 401.462L103.659 403.428Z" fill="#371A45"/>
</g>
<g opacity="0.15">
<path opacity="0.15" d="M163.261 351.355H157.491C155.42 351.355 153.741 349.676 153.741 347.605V328.553C153.741 326.482 155.42 324.803 157.491 324.803H163.261C165.332 324.803 167.011 326.482 167.011 328.553V347.605C167.011 349.676 165.332 351.355 163.261 351.355Z" fill="white"/>
</g>
<path d="M205.011 356.756C205.029 356.749 205.046 356.741 205.064 356.734C205.608 356.507 206.115 357.099 205.807 357.603C204.921 359.048 203.576 360.232 201.872 360.914C198.017 362.454 193.542 360.806 191.617 357.128C189.396 352.886 191.259 347.723 195.573 345.837C197.204 345.123 198.942 344.985 200.56 345.333C201.093 345.448 201.171 346.177 200.67 346.395L200.654 346.402C197.677 347.704 196.398 351.275 197.951 354.196C199.287 356.71 202.373 357.826 205.011 356.756Z" fill="white"/>
<g opacity="0.3">
<path opacity="0.3" d="M331.862 408.019C331.862 413.245 271.492 417.483 197.024 417.483C122.556 417.483 62.1855 413.243 62.1855 408.019C62.1855 406.552 66.9592 405.157 75.4827 403.918H318.565C327.088 405.156 331.862 406.552 331.862 408.019Z" fill="white"/>
</g>
</svg>
