<svg width="241" height="22" viewBox="0 0 241 22" fill="none" xmlns="http://www.w3.org/2000/svg">
<path d="M11.8011 21.36C17.7711 21.36 22.7511 16.47 22.7511 10.68C22.7511 4.89 17.7711 0.0299982 11.8011 0.0299982C5.89109 0.0299982 0.851094 4.89 0.851094 10.68C0.851094 16.47 5.89109 21.36 11.8011 21.36ZM11.8011 17.34C8.35109 17.34 5.41109 14.28 5.41109 10.68C5.41109 7.11 8.35109 4.05 11.8011 4.05C15.2811 4.05 18.2211 7.11 18.2211 10.68C18.2211 14.28 15.2811 17.34 11.8011 17.34ZM43.4368 21L38.3668 13.8C41.1868 12.81 43.0468 10.41 43.0468 7.35C43.0468 3.27 39.7468 0.389999 35.2768 0.389999H26.0068V21H30.4168V14.31H33.6868L38.3968 21H43.4368ZM30.4168 4.44H34.7968C36.9868 4.44 38.4868 5.58 38.4868 7.35C38.4868 9.12 36.9868 10.26 34.7968 10.26H30.4168V4.44ZM61.4588 21H66.4388L58.0388 0.389999H53.0888L44.6888 21H49.6388L50.9588 17.76H60.1388L61.4588 21ZM52.4888 14.01L55.5488 6.48L58.6088 14.01H52.4888ZM69.0481 21H73.4581V7.68L83.3881 21H87.8281V0.389999H83.3881V13.71L73.4581 0.389999H69.0481V21ZM101.551 12.87H106.351V16.02C105.181 16.86 103.741 17.34 102.331 17.34C98.8205 17.34 95.8505 14.28 95.8505 10.68C95.8505 7.11 98.8205 4.05 102.331 4.05C104.221 4.05 106.231 4.95 107.461 6.36L110.671 3.48C108.601 1.32 105.421 0.0299982 102.331 0.0299982C96.3605 0.0299982 91.2905 4.89 91.2905 10.68C91.2905 16.47 96.3605 21.36 102.331 21.36C105.421 21.36 108.601 20.07 110.671 17.91V9.42H101.551V12.87ZM130.265 4.38V0.389999H114.395V21H130.265V17.01H118.835V12.48H129.185V8.49H118.835V4.38H130.265ZM149.793 21.36C154.833 21.36 157.803 18.75 157.803 14.82C157.803 11.01 154.863 9.69 150.423 8.7C147.243 7.98 146.013 7.5 146.013 6C146.013 4.77 147.153 3.78 149.043 3.78C151.023 3.78 153.093 4.59 154.923 6.06L157.233 2.88C155.133 1.08 152.523 0.0299982 149.163 0.0299982C144.663 0.0299982 141.543 2.64 141.543 6.45C141.543 10.44 144.633 11.67 148.983 12.66C152.133 13.38 153.333 13.83 153.333 15.3C153.333 16.59 152.193 17.61 149.973 17.61C147.363 17.61 145.143 16.59 143.193 14.91L140.643 17.94C143.043 20.16 146.223 21.36 149.793 21.36ZM160.978 21H165.388V14.31H170.248C174.718 14.31 178.018 11.43 178.018 7.35C178.018 3.27 174.718 0.389999 170.248 0.389999H160.978V21ZM165.388 10.26V4.44H169.768C171.958 4.44 173.458 5.58 173.458 7.35C173.458 9.12 171.958 10.26 169.768 10.26H165.388ZM195.902 21H200.882L192.482 0.389999H187.532L179.132 21H184.082L185.402 17.76H194.582L195.902 21ZM186.932 14.01L189.992 6.48L193.052 14.01H186.932ZM213.451 21.36C216.571 21.36 219.451 20.01 221.461 17.91L218.251 15.03C217.051 16.41 215.341 17.34 213.451 17.34C210.001 17.34 207.061 14.28 207.061 10.68C207.061 7.11 210.001 4.05 213.451 4.05C215.341 4.05 217.051 4.98 218.251 6.36L221.461 3.48C219.451 1.35 216.571 0.0299982 213.451 0.0299982C207.541 0.0299982 202.501 4.89 202.501 10.68C202.501 16.47 207.541 21.36 213.451 21.36ZM240.07 4.38V0.389999H224.2V21H240.07V17.01H228.64V12.48H238.99V8.49H228.64V4.38H240.07Z" fill="#FE5517"/>
</svg>
