<svg width="49" height="45" viewBox="0 0 49 45" fill="none" xmlns="http://www.w3.org/2000/svg">
<g clip-path="url(#clip0)">
<rect x="0.512695" width="48" height="45" rx="20" fill="#FF3B3B"/>
<path d="M30.318 12.7252C28.3839 14.6605 26.4463 16.5962 24.5142 18.5318C22.5787 16.5972 20.6432 14.6616 18.707 12.7252C16.4674 10.4869 12.9973 13.9583 15.2358 16.1967C17.1707 18.1303 19.1072 20.067 21.0397 21.9999C19.1059 23.9345 17.1697 25.8708 15.2358 27.8065C12.9973 30.0441 16.4691 33.5146 18.707 31.2776C20.6418 29.3419 22.5773 27.4066 24.5142 25.471C26.4497 27.4066 28.3839 29.3413 30.318 31.2776C32.5569 33.5149 36.0274 30.0441 33.7905 27.8068C31.8546 25.8712 29.9191 23.9366 27.9833 22.0002C29.9195 20.0649 31.855 18.1293 33.7905 16.1936C36.0274 13.956 32.5569 10.4845 30.318 12.7229" fill="white"/>
</g>
<defs>
<clipPath id="clip0">
<rect width="48" height="45" fill="white" transform="translate(0.512695)"/>
</clipPath>
</defs>
</svg>
