<svg width="36" height="39" viewBox="0 0 36 39" fill="none" xmlns="http://www.w3.org/2000/svg">
<path fill-rule="evenodd" clip-rule="evenodd" d="M17.9276 0.696075C8.27236 0.696075 0.444824 9.04918 0.444824 19.3527C0.444824 29.6563 8.27236 38.0094 17.9276 38.0094C27.5829 38.0094 35.4105 29.6563 35.4105 19.3527C35.4105 9.04918 27.5829 0.696075 17.9276 0.696075ZM23.8194 15.4637C24.1089 15.1438 24.2691 14.7154 24.2654 14.2707C24.2618 13.826 24.0947 13.4006 23.8 13.0861C23.5053 12.7716 23.1067 12.5933 22.69 12.5894C22.2732 12.5855 21.8718 12.7565 21.572 13.0654L17.9276 16.9545L14.2833 13.0654C14.1367 12.9035 13.9613 12.7742 13.7674 12.6854C13.5735 12.5965 13.3649 12.5497 13.1539 12.5477C12.9428 12.5458 12.7336 12.5887 12.5382 12.674C12.3429 12.7592 12.1655 12.8852 12.0162 13.0444C11.867 13.2037 11.749 13.393 11.6691 13.6015C11.5892 13.8099 11.5489 14.0333 11.5508 14.2585C11.5526 14.4837 11.5965 14.7062 11.6798 14.9131C11.7631 15.1201 11.8841 15.3072 12.0359 15.4637L15.6803 19.3527L12.0359 23.2418C11.8841 23.3983 11.7631 23.5854 11.6798 23.7923C11.5965 23.9993 11.5526 24.2218 11.5508 24.447C11.5489 24.6722 11.5892 24.8956 11.6691 25.104C11.749 25.3125 11.867 25.5018 12.0162 25.6611C12.1655 25.8203 12.3429 25.9463 12.5382 26.0315C12.7336 26.1168 12.9428 26.1597 13.1539 26.1578C13.3649 26.1558 13.5735 26.109 13.7674 26.0201C13.9613 25.9312 14.1367 25.802 14.2833 25.64L17.9276 21.751L21.572 25.64C21.8718 25.949 22.2732 26.1199 22.69 26.1161C23.1067 26.1122 23.5053 25.9338 23.8 25.6194C24.0947 25.3049 24.2618 24.8795 24.2654 24.4348C24.2691 23.9901 24.1089 23.5617 23.8194 23.2418L20.175 19.3527L23.8194 15.4637Z" fill="#FE5517"/>
</svg>
