<svg width="38" height="38" viewBox="0 0 38 38" fill="none" xmlns="http://www.w3.org/2000/svg">
<path fill-rule="evenodd" clip-rule="evenodd" d="M19 0.666687C8.87496 0.666687 0.666626 8.87502 0.666626 19C0.666626 29.125 8.87496 37.3334 19 37.3334C29.125 37.3334 37.3333 29.125 37.3333 19C37.3333 8.87502 29.125 0.666687 19 0.666687ZM25.1783 15.1784C25.4819 14.864 25.6499 14.443 25.6461 14.006C25.6423 13.569 25.467 13.151 25.158 12.842C24.849 12.533 24.431 12.3577 23.994 12.3539C23.557 12.3501 23.136 12.5181 22.8216 12.8217L19 16.6434L15.1783 12.8217C15.0245 12.6625 14.8406 12.5355 14.6373 12.4482C14.434 12.3608 14.2153 12.3149 13.994 12.3129C13.7727 12.311 13.5532 12.3532 13.3484 12.437C13.1435 12.5208 12.9575 12.6445 12.801 12.801C12.6445 12.9575 12.5207 13.1436 12.4369 13.3484C12.3531 13.5533 12.311 13.7727 12.3129 13.994C12.3148 14.2153 12.3608 14.434 12.4481 14.6374C12.5355 14.8407 12.6624 15.0246 12.8216 15.1784L16.6433 19L12.8216 22.8217C12.6624 22.9754 12.5355 23.1593 12.4481 23.3627C12.3608 23.566 12.3148 23.7847 12.3129 24.006C12.311 24.2273 12.3531 24.4468 12.4369 24.6516C12.5207 24.8564 12.6445 25.0425 12.801 25.199C12.9575 25.3555 13.1435 25.4793 13.3484 25.5631C13.5532 25.6469 13.7727 25.689 13.994 25.6871C14.2153 25.6852 14.434 25.6392 14.6373 25.5519C14.8406 25.4645 15.0245 25.3375 15.1783 25.1784L19 21.3567L22.8216 25.1784C23.136 25.482 23.557 25.6499 23.994 25.6461C24.431 25.6423 24.849 25.4671 25.158 25.1581C25.467 24.849 25.6423 24.431 25.6461 23.994C25.6499 23.557 25.4819 23.136 25.1783 22.8217L21.3566 19L25.1783 15.1784Z" fill="#2A2962"/>
</svg>
