<svg width="35" height="35" viewBox="0 0 35 35" fill="none" xmlns="http://www.w3.org/2000/svg">
<path fill-rule="evenodd" clip-rule="evenodd" d="M4.37504 4.375H30.625C32.2292 4.375 33.5417 5.6875 33.5417 7.29167V24.7917C33.5417 26.3958 32.2292 27.7083 30.625 27.7083H23.3334V29.1667C23.3334 29.9688 22.6771 30.625 21.875 30.625H13.125C12.323 30.625 11.6667 29.9688 11.6667 29.1667V27.7083H4.37504C2.77087 27.7083 1.45837 26.3958 1.45837 24.7917V7.29167C1.45837 5.6875 2.77087 4.375 4.37504 4.375ZM5.83337 24.7917H29.1667C29.9688 24.7917 30.625 24.1354 30.625 23.3333V8.75C30.625 7.94792 29.9688 7.29167 29.1667 7.29167H5.83337C5.03129 7.29167 4.37504 7.94792 4.37504 8.75V23.3333C4.37504 24.1354 5.03129 24.7917 5.83337 24.7917ZM26.25 11.6667H13.125C12.323 11.6667 11.6667 12.3229 11.6667 13.125C11.6667 13.9271 12.323 14.5833 13.125 14.5833H26.25C27.0521 14.5833 27.7084 13.9271 27.7084 13.125C27.7084 12.3229 27.0521 11.6667 26.25 11.6667ZM13.125 17.5H26.25C27.0521 17.5 27.7084 18.1562 27.7084 18.9583C27.7084 19.7604 27.0521 20.4167 26.25 20.4167H13.125C12.323 20.4167 11.6667 19.7604 11.6667 18.9583C11.6667 18.1562 12.323 17.5 13.125 17.5ZM10.2084 11.6667H7.29171V14.5833H10.2084V11.6667ZM7.29171 17.5H10.2084V20.4167H7.29171V17.5Z" fill="white"/>
</svg>
