<svg width="33" height="35" viewBox="0 0 33 35" fill="none" xmlns="http://www.w3.org/2000/svg">
<path fill-rule="evenodd" clip-rule="evenodd" d="M16.5 4.37501C14.8749 4.37501 13.2657 4.7145 11.7643 5.37409C10.2629 6.03368 8.89868 7.00046 7.74955 8.21923C6.60043 9.438 5.68889 10.8849 5.06699 12.4773C4.44509 14.0697 4.125 15.7764 4.125 17.5C4.125 19.2236 4.44509 20.9303 5.06699 22.5227C5.68889 24.1151 6.60043 25.562 7.74955 26.7808C8.89868 27.9996 10.2629 28.9663 11.7643 29.6259C13.2657 30.2855 14.8749 30.625 16.5 30.625C19.7821 30.625 22.9297 29.2422 25.2504 26.7808C27.5712 24.3194 28.875 20.981 28.875 17.5C28.875 14.019 27.5712 10.6806 25.2504 8.21923C22.9297 5.75782 19.7821 4.37501 16.5 4.37501ZM1.375 17.5C1.375 8.64064 8.14688 1.45834 16.5 1.45834C24.8531 1.45834 31.625 8.64064 31.625 17.5C31.625 26.3594 24.8531 33.5417 16.5 33.5417C8.14688 33.5417 1.375 26.3594 1.375 17.5ZM18.2188 24.4271C18.2188 24.9106 18.0377 25.3742 17.7153 25.7161C17.393 26.058 16.9558 26.25 16.5 26.25C16.0442 26.25 15.607 26.058 15.2847 25.7161C14.9623 25.3742 14.7813 24.9106 14.7813 24.4271C14.7813 23.9436 14.9623 23.48 15.2847 23.1381C15.607 22.7962 16.0442 22.6042 16.5 22.6042C16.9558 22.6042 17.393 22.7962 17.7153 23.1381C18.0377 23.48 18.2188 23.9436 18.2188 24.4271ZM13.9356 13.0725C14.3 12.3375 15.2391 11.6667 16.5 11.6667C18.2641 11.6667 19.25 12.8844 19.25 13.8542C19.25 14.824 18.2641 16.0417 16.5 16.0417C16.1353 16.0417 15.7856 16.1953 15.5277 16.4688C15.2699 16.7423 15.125 17.1132 15.125 17.5V18.9583C15.125 19.3451 15.2699 19.716 15.5277 19.9895C15.7856 20.263 16.1353 20.4167 16.5 20.4167C16.8647 20.4167 17.2144 20.263 17.4723 19.9895C17.7301 19.716 17.875 19.3451 17.875 18.9583V18.7936C20.119 18.2496 22 16.4019 22 13.8542C22 10.7975 19.2913 8.75001 16.5 8.75001C14.3784 8.75001 12.4094 9.88022 11.5005 11.7192C11.4115 11.8892 11.3554 12.0764 11.3356 12.2698C11.3157 12.4631 11.3326 12.6588 11.3851 12.8451C11.4377 13.0315 11.5248 13.2048 11.6415 13.3549C11.7581 13.505 11.9019 13.6288 12.0643 13.7191C12.2268 13.8093 12.4046 13.8642 12.5873 13.8805C12.7701 13.8968 12.954 13.8742 13.1284 13.8139C13.3028 13.7537 13.464 13.6571 13.6026 13.5297C13.7413 13.4024 13.8545 13.2469 13.9356 13.0725Z" fill="#FE5517"/>
</svg>
