<svg width="31" height="27" viewBox="0 0 31 27" fill="none" xmlns="http://www.w3.org/2000/svg">
<path fill-rule="evenodd" clip-rule="evenodd" d="M4.04336 13.5025C4.04336 6.13794 10.1246 0.17336 17.5475 0.377526C24.3871 0.56711 30.1038 6.28378 30.2934 13.1234C30.4975 20.5463 24.5329 26.6275 17.1684 26.6275C14.1204 26.6275 11.335 25.5921 9.11836 23.8421C8.43294 23.3171 8.38919 22.2817 9.00169 21.6692C9.52669 21.1442 10.3434 21.1004 10.9267 21.5525C12.6475 22.9088 14.8204 23.7109 17.1684 23.7109C22.8559 23.7109 27.4496 19.0588 27.3767 13.3567C27.3038 7.93169 22.7392 3.36711 17.3142 3.29419C11.5975 3.22128 6.96003 7.81503 6.96003 13.5025H9.57044C10.2267 13.5025 10.5475 14.29 10.0954 14.7421L6.02669 18.8254C5.73503 19.1171 5.28294 19.1171 4.99128 18.8254L0.922526 14.7421C0.455859 14.29 0.776692 13.5025 1.43294 13.5025H4.04336ZM15.71 8.76294C15.71 8.16503 16.2059 7.66919 16.8038 7.66919C17.4017 7.66919 17.8975 8.16503 17.8975 8.74836V13.7067L22.0975 16.2004C22.6079 16.5067 22.7829 17.1775 22.4767 17.7025C22.1704 18.2129 21.4996 18.3879 20.9746 18.0817L16.4246 15.3838C15.9871 15.1213 15.71 14.64 15.71 14.1296V8.76294Z" fill="white"/>
</svg>
