<svg width="133" height="138" viewBox="0 0 133 138" fill="none" xmlns="http://www.w3.org/2000/svg">
<path d="M48.6122 50.7043C48.6122 50.7043 39.9428 42.9158 42.1967 31.1152C42.1967 31.1152 45.267 28.1621 49.1115 29.9988C49.1115 29.9988 43.2126 37.9086 50.4356 48.8809C50.4254 48.8911 50.4082 50.431 48.6122 50.7043Z" fill="#37B34A"/>
<path d="M42.2384 40.6045C42.2384 40.6045 30.4797 27.8683 19.4101 37.0595C8.34124 46.2309 4.63696 47.9227 4.63696 47.9227C4.63696 47.9227 29.1611 70.1459 42.2384 40.6045Z" fill="#37B34A"/>
<path d="M30.2651 48.6678C19.6315 55.8514 8.82468 48.5266 6.54689 46.7986C5.20773 47.6586 4.63696 47.9227 4.63696 47.9227C4.63696 47.9227 29.1611 70.1459 42.2384 40.6044C42.2384 40.6044 38.3093 36.3495 32.8452 34.5303C36.5868 37.8036 38.1161 43.385 30.2651 48.6678Z" fill="#32A745"/>
<path d="M107.8 84.8432C107.8 107.355 89.3489 125.623 66.5658 125.623C43.7827 125.623 25.3318 107.355 25.3318 84.8432C25.3318 62.3312 43.7827 44.0633 66.5658 44.0633C89.3489 44.0633 107.8 62.3312 107.8 84.8432Z" fill="#FE7130" stroke="#371A45" stroke-width="2"/>
<path d="M71.4645 45.6379H85.1295C87.5206 45.6379 89.4768 43.613 89.4768 41.138V28.453C89.4768 25.978 87.5206 23.9531 85.1295 23.9531H71.4645C69.0734 23.9531 67.1172 25.978 67.1172 28.453V41.138C67.1172 43.613 69.0734 45.6379 71.4645 45.6379Z" fill="white"/>
<path d="M89.4765 28.3793V41.2135C89.4765 43.6469 87.4876 45.6388 85.056 45.6388H71.5377C69.1069 45.6388 67.1172 43.6469 67.1172 41.2135V28.3793C67.1172 27.6783 67.2821 27.0129 67.5761 26.4221C67.7927 25.9847 68.0809 25.5878 68.4236 25.2458C69.1746 24.4979 70.192 24.0165 71.3144 23.9601C71.389 23.9561 71.4634 23.954 71.538 23.954H85.0563C85.0574 23.954 85.0574 23.954 85.0582 23.954C86.8375 23.9549 88.3781 25.021 89.0774 26.5465C89.1559 26.7175 89.2236 26.8937 89.28 27.0757C89.4081 27.4882 89.4765 27.9259 89.4765 28.3793Z" fill="white"/>
<path d="M85.1296 23.9531C87.5207 23.9531 89.4769 25.9779 89.4769 28.453V41.1379C89.4769 43.6129 87.5207 45.6378 85.1296 45.6378H71.4646C69.0735 45.6378 67.1173 43.6129 67.1173 41.1379V28.453C67.1173 25.9779 69.0738 23.9531 71.4646 23.9531H85.1296ZM85.1296 23.0261H71.4646C68.5738 23.0261 66.2218 25.4606 66.2218 28.453V41.1379C66.2218 44.1302 68.5738 46.5648 71.4646 46.5648H85.1296C88.0204 46.5648 90.3724 44.1302 90.3724 41.1379V28.453C90.3724 25.4606 88.0204 23.0261 85.1296 23.0261Z" fill="#371A45"/>
<g opacity="0.3">
<g opacity="0.3">
<path opacity="0.3" d="M88.9932 29.0306C88.9731 29.0414 88.9541 29.0518 88.9356 29.0616C88.9345 29.033 88.9348 29.0046 88.9362 28.9763C88.9384 28.9369 88.9429 28.8979 88.9499 28.8594C88.9516 28.8493 88.9535 28.8394 88.956 28.8296C88.9563 28.8255 88.9574 28.8215 88.9583 28.8171C88.9608 28.8053 88.9641 28.7943 88.9672 28.783C88.9697 28.7732 88.9722 28.7636 88.9753 28.7541C88.9767 28.7489 88.9778 28.7442 88.9795 28.7399C88.9831 28.7292 88.9868 28.7185 88.9901 28.7084C88.9949 28.6956 88.9994 28.6835 89.0041 28.6713C89.0013 28.6846 88.9988 28.6979 88.9966 28.7113C88.9915 28.7393 88.9879 28.7688 88.9854 28.7978C88.9784 28.875 88.9818 28.9528 88.9932 29.0306Z" fill="#6B184E"/>
</g>
</g>
<path d="M72.1621 24.7529L71.7968 25.7464L71.4863 26.5894L71.2166 27.3231L69.6271 31.6424C69.3694 31.7165 69.1064 31.7836 68.8356 31.8395C65.4399 32.5619 60.9542 31.7984 54.8329 24.6933C53.8754 23.5823 51.5648 22.9091 52.5721 20.3832C53.6023 17.7991 55.0521 18.1217 55.0521 18.1217C55.0521 18.1217 54.6722 16.8409 55.4912 16.1929C56.6469 15.2769 58.0173 16.6338 59.3482 17.6012C59.5375 17.7392 59.4528 15.883 60.7033 15.9388C62.492 16.0187 62.3962 20.2446 62.3962 20.2446C62.3962 20.2446 64.8091 22.987 68.5549 24.1948C69.505 24.5012 70.5419 24.7086 71.647 24.7474C71.8164 24.7529 71.9894 24.7552 72.1621 24.7529Z" fill="white"/>
<g opacity="0.35">
<g opacity="0.35">
<path opacity="0.35" d="M69.6272 31.6422C66.145 32.6435 61.4427 32.3646 54.8334 24.6933C53.8764 23.5824 51.5655 22.9098 52.5728 20.3835C53.191 18.8311 53.9616 18.3283 54.4773 18.1732C54.3023 18.4481 54.1771 18.8074 53.9675 19.1896C52.7891 21.3385 56.0159 23.4239 56.9053 23.0423C57.4509 22.8082 57.6429 22.5817 57.9579 21.502C58.293 20.3543 58.814 19.8084 58.8755 19.8796C59.1547 20.2036 59.1611 24.2027 59.8029 25.609C61.4393 29.1952 65.8453 30.958 69.0425 30.8044C69.4724 30.7844 69.7804 31.2268 69.6272 31.6422Z" fill="#371A45"/>
</g>
</g>
<path d="M66.8344 32.5161C63.7904 32.5161 59.7128 31.041 54.5052 24.997C54.2942 24.7523 53.9892 24.5168 53.6661 24.2677C52.6594 23.4912 51.2809 22.4277 52.1655 20.209C52.912 18.3366 53.9043 17.819 54.5348 17.692C54.4918 17.1551 54.5625 16.354 55.2243 15.8301C56.4754 14.8395 57.8315 15.8787 59.0286 16.7958C59.066 16.8244 59.1032 16.853 59.1407 16.8817C59.3095 16.3065 59.6969 15.4343 60.7235 15.4826C62.7006 15.5708 62.8387 19.1047 62.8398 20.062C63.5305 20.7816 67.2212 24.3655 72.1577 24.2963C72.1597 24.2963 72.1617 24.2963 72.1636 24.2963C72.4043 24.2963 72.6007 24.4965 72.6038 24.7462C72.6069 24.9979 72.4124 25.2045 72.1692 25.2077C66.3053 25.284 62.2425 20.7445 62.0723 20.551C61.9963 20.4645 61.9552 20.3508 61.9577 20.2339C61.9843 19.0006 61.7084 16.439 60.6857 16.3933C60.248 16.3745 60.0767 16.7362 59.9146 17.4114C59.8472 17.692 59.7891 17.9342 59.532 18.0337C59.3877 18.0893 59.2248 18.0673 59.0965 17.9741C58.9 17.8312 58.7024 17.6799 58.5048 17.5286C57.2473 16.5652 56.4354 16.0187 55.7596 16.5542C55.1975 16.9991 55.4714 17.9802 55.4742 17.99C55.5184 18.1442 55.4812 18.3123 55.3755 18.4306C55.2699 18.5487 55.112 18.6019 54.9599 18.5675C54.9239 18.5617 53.8397 18.4008 52.98 20.557C52.3567 22.1208 53.2075 22.7769 54.1927 23.5369C54.5368 23.8022 54.8923 24.0768 55.1628 24.3904C61.9337 32.2485 66.5938 32.0417 69.5101 31.2027C69.7446 31.1356 69.9872 31.2773 70.0523 31.5198C70.1174 31.7622 69.9802 32.0136 69.746 32.081C68.9083 32.3217 67.9393 32.5161 66.8344 32.5161Z" fill="#371A45"/>
<path d="M59.8859 17.5019L59.787 18.9485C59.7808 19.037 59.7523 19.1186 59.707 19.1868L59.6947 19.2051C59.6732 19.2276 59.6333 19.2806 59.6028 19.324C59.5704 19.3703 59.5388 19.418 59.5094 19.468C59.4488 19.5667 59.3965 19.6709 59.3484 19.7773C59.2545 19.9908 59.1911 20.2165 59.1643 20.4462C59.1458 20.5616 59.152 20.6765 59.1506 20.7937C59.1673 20.9076 59.1704 21.0268 59.2059 21.1394C59.2531 21.3723 59.3658 21.5884 59.4865 21.8033L59.498 21.8239C59.5589 21.9324 59.5234 22.0715 59.4186 22.1346C59.3233 22.1919 59.2037 22.1667 59.1369 22.0802C58.9608 21.8528 58.7881 21.6081 58.6844 21.3208C58.6209 21.1819 58.5913 21.0309 58.5513 20.8816C58.5295 20.7297 58.503 20.5755 58.5046 20.4204C58.4977 20.1106 58.5407 19.801 58.624 19.5065C58.6668 19.3596 58.7162 19.2149 58.7772 19.0743C58.8065 19.0037 58.8395 18.934 58.8747 18.8648C58.9121 18.7928 58.9435 18.7326 58.9996 18.6464V18.6461L58.9077 18.9027L59.0094 17.4154C59.0265 17.1643 59.2372 16.9754 59.4795 16.993C59.7221 17.0107 59.9046 17.2288 59.8876 17.4796L59.8859 17.5019Z" fill="#371A45"/>
<path d="M62.8379 31.5554C62.7459 31.5554 62.6542 31.5181 62.5857 31.4441C62.4521 31.3 62.4566 31.0711 62.5958 30.9328C64.9626 28.5819 65.3246 22.9063 65.3279 22.8493C65.3397 22.65 65.5057 22.4981 65.698 22.5105C65.8906 22.5227 66.037 22.6942 66.0255 22.8933C66.011 23.1378 65.644 28.9074 63.0796 31.4548C63.012 31.5222 62.9248 31.5554 62.8379 31.5554Z" fill="#371A45"/>
<path d="M93.4045 43.4376C93.2164 47.7446 91.9438 49.4923 90.3731 50.0437C90.0483 50.1577 89.6654 50.2259 89.323 50.2135C88.2111 50.1736 87.4045 49.6881 87.4045 49.6881C87.4045 49.6881 86.995 49.8658 86.6197 49.8282C83.7148 49.5365 84.3775 47.7521 84.9675 44.8934C85.1372 44.0709 85.301 43.1593 85.3714 42.1693C85.7071 37.4921 84.4435 33.0703 84.4435 33.0703L84.9301 28.8739L85.4718 24.1967C85.4718 24.1967 85.7557 24.4634 86.2169 24.9703C86.6208 25.4135 87.1602 26.039 87.7623 26.8308C90.2191 30.0557 93.7304 36.0169 93.4045 43.4376Z" fill="white"/>
<path d="M89.4005 50.6707C89.3692 50.6707 89.3384 50.6701 89.3077 50.669C88.4116 50.6369 87.6961 50.3418 87.3716 50.1824C87.179 50.2425 86.8774 50.3117 86.577 50.2816C85.4813 50.1717 84.7854 49.8554 84.3866 49.2864C83.763 48.3965 84.038 47.1198 84.386 45.5034C84.5998 44.5114 84.8418 43.3868 84.9318 42.1353C85.2575 37.6015 84.0338 33.2428 84.0215 33.1994C83.9528 32.9582 84.0858 32.7047 84.3192 32.6333C84.5526 32.5615 84.7971 32.6998 84.8662 32.9411C84.9187 33.1248 86.1482 37.4977 85.8103 42.2027C85.7156 43.5202 85.466 44.6792 85.2457 45.7016C84.9458 47.094 84.7091 48.1937 85.0995 48.7512C85.336 49.0888 85.8472 49.2927 86.6619 49.3743C86.876 49.396 87.1491 49.304 87.2366 49.267L87.4373 49.1822L87.6262 49.2942C87.6321 49.2977 88.3602 49.7229 89.3382 49.7579C89.6143 49.7681 89.9394 49.7146 90.2314 49.6121C91.8911 49.0295 92.8109 46.945 92.9652 43.4169C93.2156 37.6982 91.0912 32.876 89.2652 29.838C87.2757 26.528 85.1965 24.5538 85.1756 24.5341C84.9959 24.3649 84.9824 24.0767 85.1459 23.8904C85.3095 23.7044 85.5878 23.6905 85.7678 23.8594C85.8556 23.9422 87.944 25.9216 89.998 29.3317C91.8972 32.4843 94.1061 37.4945 93.8451 43.4583C93.6701 47.4545 92.5806 49.7498 90.5143 50.4751C90.1568 50.6007 89.7563 50.6707 89.4005 50.6707Z" fill="#371A45"/>
<path d="M85.288 38.1751C85.1452 38.1751 85.011 38.0837 84.9596 37.9368C84.8939 37.749 84.9875 37.5416 85.1689 37.4736C85.4079 37.3836 91.0454 35.298 93.0938 37.2051C93.2372 37.3388 93.249 37.5673 93.1201 37.7157C92.9913 37.8641 92.7702 37.8763 92.6268 37.7429C91.184 36.3997 86.9261 37.5838 85.4073 38.1534C85.3677 38.1682 85.3274 38.1751 85.288 38.1751Z" fill="#371A45"/>
<path d="M88.4063 44.8109H67.9271C67.8731 43.0915 67.8863 41.4361 67.9492 39.8536C68.0076 38.3883 68.1099 36.9857 68.244 35.654C68.3662 34.436 68.516 33.2773 68.6831 32.1812C68.7052 32.0365 68.7315 31.8953 68.7603 31.7573C69.1753 29.8146 70.2902 28.4691 71.0563 27.168C71.1863 26.947 71.3062 26.7283 71.4107 26.5073C71.5318 26.2521 71.6321 25.9958 71.7045 25.7325C71.7112 25.7096 71.7165 25.6868 71.721 25.6642C71.7738 25.3804 71.6967 25.0306 71.5712 24.665C71.2959 23.8615 70.7897 22.9786 70.9317 22.5423C71.1673 21.8234 71.3719 21.2584 71.5239 20.8594C71.6967 20.4037 71.8004 20.1656 71.8004 20.1656H84.5327C84.5327 20.1656 84.6383 20.4003 84.8155 20.8528C84.9994 21.3211 85.2591 22.0218 85.5562 22.9413C85.7401 23.5086 85.9383 24.1592 86.1406 24.8883C86.2893 25.4215 86.4411 25.9969 86.592 26.6123C86.6636 26.9051 86.7351 27.2071 86.8044 27.5169C87.1368 28.9684 87.4548 30.6137 87.7215 32.4389C87.8724 33.4622 88.0055 34.5399 88.1145 35.6725C88.2455 37.0103 88.3423 38.4218 88.3962 39.9008C88.4535 41.4624 88.4613 43.1031 88.4063 44.8109Z" fill="white"/>
<path d="M69.6982 28.5885C69.7161 28.9464 69.6966 29.2913 69.6798 29.6361C69.6664 29.9816 69.6306 30.3203 69.6013 30.66C69.5705 30.9996 69.5224 31.3344 69.478 31.6708C69.4271 32.0058 69.3603 32.3377 69.3027 32.6724L69.2155 33.1738C69.1893 33.3413 69.1675 33.5099 69.1448 33.6783C69.0996 34.0148 69.0582 34.3521 69.0219 34.6903C68.9819 35.0279 68.9464 35.3661 68.9148 35.7052C68.8799 36.0437 68.8494 36.3828 68.822 36.7221C68.7021 38.0793 68.6672 39.4442 68.6191 40.8077C68.5895 41.4893 68.561 42.1715 68.512 42.8534C68.4749 43.5359 68.4369 44.2175 68.0716 44.8953C68.0511 44.9335 68.0048 44.9474 67.9679 44.9263C67.9539 44.9185 67.9433 44.9063 67.9368 44.8927C67.5984 44.2004 67.59 43.5119 67.593 42.8248C67.5855 42.1368 67.6031 41.4491 67.6347 40.762C67.7062 39.3875 67.834 38.0162 67.9452 36.6429C67.9729 36.2994 68.0039 35.9563 68.0391 35.6132C68.0713 35.2701 68.1073 34.9273 68.1476 34.5844C68.1845 34.2416 68.2264 33.8991 68.2722 33.5568L68.3974 32.528C68.4343 32.1843 68.4827 31.8415 68.5447 31.501C68.6065 31.1608 68.6937 30.8249 68.7871 30.4913C68.9808 29.8256 69.225 29.1715 69.568 28.5538C69.5873 28.5191 69.63 28.5072 69.6636 28.5272C69.6848 28.5399 69.6971 28.5622 69.6985 28.5856L69.6982 28.5885Z" fill="#371A45"/>
<path d="M88.4143 44.8955C88.0515 44.2836 88.016 43.6668 87.985 43.05C87.9416 42.434 87.9187 41.8184 87.8961 41.2039C87.86 39.9749 87.8307 38.7471 87.7049 37.5271C87.6465 36.9169 87.5741 36.3082 87.4925 35.7007C87.4098 35.0934 87.3284 34.485 87.2018 33.8844C87.1434 33.5832 87.0794 33.2832 87.0299 32.9803C86.9847 32.6766 86.9489 32.3711 86.9195 32.0632C86.8905 31.7554 86.8773 31.4441 86.8678 31.1311C86.8611 30.8175 86.862 30.5018 86.8952 30.1778L86.8955 30.1761C86.8997 30.1359 86.9344 30.1069 86.9732 30.1113C86.9967 30.1139 87.0162 30.1283 87.0271 30.148C87.3352 30.7119 87.5554 31.2992 87.7343 31.8963C87.9173 32.4929 88.033 33.105 88.1049 33.7247C88.1823 34.3433 88.2843 34.9577 88.3648 35.576C88.4478 36.194 88.5213 36.8137 88.5809 37.4348C88.6988 38.6768 88.8215 39.9197 88.881 41.1631C88.9056 41.7848 88.9176 42.4063 88.9045 43.0271C88.9012 43.6474 88.8903 44.2677 88.5493 44.8929C88.528 44.9319 88.4802 44.9455 88.4425 44.9235C88.4305 44.9166 88.421 44.9064 88.4143 44.8955Z" fill="#371A45"/>
<g opacity="0.35">
<g opacity="0.35">
<path opacity="0.35" d="M88.4724 40.9809C87.2158 41.1082 85.6478 41.1539 84.4306 40.8238V41.5228C84.4306 42.4905 83.6648 43.283 82.729 43.283H73.4466C72.5117 43.283 71.747 42.4903 71.747 41.5228V40.9639C70.5336 41.1548 69.1213 41.0724 68.0251 40.9439C68.0827 39.7765 68.1856 38.6587 68.32 37.5975C69.3259 37.6412 70.6248 37.6603 71.747 37.5596V36.3057C71.747 35.3363 72.5117 34.5464 73.4466 34.5464H82.729C83.2796 34.5464 83.7715 34.821 84.0826 35.2437C84.3006 35.5391 84.4303 35.9071 84.4303 36.3057V37.4812C85.5601 37.6513 87.0213 37.6513 88.1907 37.6114C88.3215 38.6778 88.4185 39.8023 88.4724 40.9809Z" fill="#371A45"/>
</g>
</g>
<path d="M73.5428 39.1385C72.2663 39.6734 70.2911 39.5614 68.9445 39.3928C68.1367 39.2915 67.5699 38.5202 67.6887 37.687C67.7972 36.9267 68.4436 36.3738 69.1854 36.41C70.4451 36.4711 72.3345 36.4997 73.5311 36.2249" fill="white"/>
<g opacity="0.35">
<g opacity="0.35">
<path opacity="0.35" d="M73.5433 39.1383C72.2665 39.6738 70.2913 39.5609 68.9447 39.3931C68.1369 39.2919 67.5701 38.5197 67.6891 37.6874C67.7129 37.5173 67.7646 37.3579 67.8376 37.2123C68.0503 37.6327 68.453 37.9423 68.9444 38.0042C70.2888 38.1731 72.2606 38.2848 73.5374 37.7528L73.5433 39.1383Z" fill="#371A45"/>
</g>
</g>
<path d="M71.0035 39.9878C70.2606 39.9878 69.5233 39.9245 68.8916 39.8455C68.3827 39.7818 67.931 39.5142 67.6199 39.0921C67.3083 38.6695 67.178 38.1467 67.2532 37.6207C67.3955 36.6241 68.2354 35.9083 69.2061 35.9552C71.0527 36.0449 72.5547 35.9827 73.4357 35.7804C73.5959 35.7437 74.1434 35.6994 74.4383 36.6805C74.7153 37.6028 74.675 39.1564 73.7082 39.5614C72.946 39.8805 71.9703 39.9878 71.0035 39.9878ZM73.5431 39.1387H73.5444H73.5431ZM69.1169 36.8642C68.6202 36.8642 68.1979 37.2388 68.1244 37.7538C68.0842 38.0347 68.1538 38.3136 68.3201 38.5393C68.4858 38.7641 68.7264 38.9067 68.9973 38.9405C70.9063 39.1795 72.4619 39.1002 73.3776 38.7163C73.5721 38.6347 73.6498 38.2971 73.6744 38.1557C73.7734 37.5828 73.6291 36.9229 73.4983 36.6978C72.2747 36.9495 70.4783 36.929 69.165 36.8653C69.1488 36.8645 69.1328 36.8642 69.1169 36.8642Z" fill="#371A45"/>
<path d="M83.3054 39.1385C84.5819 39.6734 86.5571 39.5614 87.9037 39.3928C88.7115 39.2915 89.2783 38.5202 89.1595 37.687C89.0511 36.9267 88.4046 36.3738 87.6628 36.41C86.4031 36.4711 84.5137 36.4997 83.3172 36.2249" fill="white"/>
<g opacity="0.35">
<g opacity="0.35">
<path opacity="0.35" d="M87.904 39.3937C86.5574 39.5615 84.5822 39.6744 83.3054 39.1388L83.311 37.7403C84.5878 38.2724 86.5596 38.1607 87.904 37.9917C88.3934 37.9313 88.794 37.6237 89.0075 37.2057C89.083 37.3524 89.1358 37.5144 89.1604 37.6877C89.2786 38.5206 88.7115 39.2925 87.904 39.3937Z" fill="#371A45"/>
</g>
</g>
<path d="M85.845 39.9879C84.8782 39.9879 83.9025 39.8806 83.1403 39.5612C82.1738 39.1562 82.1332 37.6026 82.4102 36.6803C82.7048 35.6992 83.2521 35.7432 83.4128 35.7802C84.2935 35.9825 85.7952 36.0447 87.6424 35.955C88.612 35.907 89.4527 36.6239 89.5953 37.6205C89.6705 38.1468 89.5402 38.6693 89.2286 39.0922C88.9175 39.5143 88.4658 39.7817 87.9569 39.8456C87.3255 39.9246 86.5879 39.9879 85.845 39.9879ZM83.4706 38.7164C84.3863 39.1 85.942 39.1799 87.8509 38.9406C88.1221 38.9068 88.3624 38.7642 88.5282 38.5394C88.6945 38.3137 88.7641 38.0348 88.7238 37.7542C88.6481 37.2227 88.2014 36.8414 87.6832 36.8657C86.3699 36.9294 84.5735 36.9502 83.3499 36.6982C83.2191 36.9233 83.0749 37.5832 83.1738 38.156C83.1984 38.2969 83.2764 38.6348 83.4706 38.7164Z" fill="#371A45"/>
<path d="M83.799 35.2627V39.9318C83.799 40.798 83.1139 41.5071 82.2771 41.5071H73.9696C73.1339 41.5071 72.4489 40.798 72.4489 39.9318V35.2627C72.4489 34.3965 73.1339 33.6885 73.9696 33.6885H82.2771C82.7699 33.6885 83.2095 33.9342 83.4887 34.3126C83.6833 34.5767 83.799 34.9062 83.799 35.2627Z" fill="white"/>
<g opacity="0.35">
<g opacity="0.35">
<path opacity="0.35" d="M83.7989 35.2624V39.9316C83.7989 40.7978 83.1141 41.5066 82.2773 41.5066H73.9701C73.1333 41.5066 72.4485 40.7978 72.4485 39.9316V38.185C73.6962 39.5017 76.1499 40.3282 78.4001 40.3407C79.1232 40.3447 79.7065 39.7528 79.7579 39.0061C79.7585 38.9986 79.759 38.991 79.7596 38.9835C79.8149 38.3285 80.3362 37.7979 80.9698 37.7508C81.6915 37.697 82.3005 38.2487 82.3718 38.9656C83.461 37.5737 83.1421 35.1545 83.4884 34.3121C83.6835 34.5768 83.7989 34.9057 83.7989 35.2624Z" fill="#371A45"/>
</g>
</g>
<path d="M82.2775 41.9625H73.9699C72.8883 41.9625 72.0084 41.0517 72.0084 39.9321V35.2624C72.0084 34.1428 72.8883 33.2321 73.9699 33.2321H82.2775C83.3592 33.2321 84.239 34.1428 84.239 35.2624V39.9321C84.2387 41.0515 83.3589 41.9625 82.2775 41.9625ZM73.9699 34.1434C73.3741 34.1434 72.8891 34.6453 72.8891 35.2621V39.9318C72.8891 40.5489 73.3741 41.0506 73.9699 41.0506H82.2775C82.8734 41.0506 83.3583 40.5486 83.3583 39.9318V35.2621C83.3583 34.6453 82.8734 34.1434 82.2775 34.1434H73.9699Z" fill="#371A45"/>
<path d="M81.9937 38.5577C82.506 38.0274 82.506 37.1676 81.9937 36.6372C81.4813 36.1069 80.6506 36.1069 80.1383 36.6372C79.6259 37.1676 79.6259 38.0274 80.1383 38.5577C80.6506 39.0881 81.4813 39.0881 81.9937 38.5577Z" fill="#22A7F0"/>
<g opacity="0.7">
<g opacity="0.7">
<path opacity="0.7" d="M82.3785 37.5969C82.3785 37.6901 82.3702 37.7801 82.3531 37.8683C82.2321 37.2474 81.7022 36.7802 81.0671 36.7802C80.4313 36.7802 79.9013 37.2474 79.7803 37.8683C79.7633 37.7801 79.7549 37.6901 79.7549 37.5969C79.7549 36.8468 80.3424 36.2395 81.0674 36.2395C81.791 36.2395 82.3785 36.8468 82.3785 37.5969Z" fill="white"/>
</g>
</g>
<g opacity="0.35">
<g opacity="0.35">
<path opacity="0.35" d="M82.3783 37.5974C82.3783 38.3473 81.791 38.9552 81.0666 38.9552C80.3421 38.9552 79.7549 38.3473 79.7549 37.5974C79.7549 37.4239 79.7865 37.2587 79.8449 37.1062C80.0338 37.6128 80.5098 37.9712 81.0666 37.9712C81.6233 37.9712 82.0993 37.6125 82.2883 37.1062C82.3467 37.2587 82.3783 37.4239 82.3783 37.5974Z" fill="#371A45"/>
</g>
</g>
<path d="M81.0667 39.297C80.1614 39.297 79.4247 38.5346 79.4247 37.5973C79.4247 36.6599 80.1614 35.8976 81.0667 35.8976C81.9723 35.8976 82.7088 36.6599 82.7088 37.5973C82.7088 38.5346 81.972 39.297 81.0667 39.297ZM81.0667 36.5812C80.5256 36.5812 80.0851 37.0372 80.0851 37.5973C80.0851 38.1574 80.5256 38.6133 81.0667 38.6133C81.6081 38.6133 82.0483 38.1574 82.0483 37.5973C82.0483 37.0372 81.6078 36.5812 81.0667 36.5812Z" fill="#371A45"/>
<path d="M77.349 41.8487C77.1665 41.8487 77.0189 41.6957 77.0189 41.5071V39.0262C77.0189 38.6015 76.8233 38.1953 76.4951 37.9399L76.1441 37.6665C75.6513 37.2826 75.3573 36.6721 75.3573 36.0339V33.6882C75.3573 33.4993 75.5052 33.3466 75.6874 33.3466C75.8699 33.3466 76.0175 33.4996 76.0175 33.6882V36.0339C76.0175 36.4586 76.2131 36.8648 76.5412 37.1203L76.8923 37.3937C77.3851 37.7776 77.6791 38.388 77.6791 39.0262V41.5071C77.6791 41.6957 77.5312 41.8487 77.349 41.8487Z" fill="#371A45"/>
<g opacity="0.35">
<g opacity="0.35">
<path opacity="0.35" d="M88.1918 27.2797C87.8908 27.5693 87.5758 27.8433 87.2499 28.0999C86.5973 28.6184 85.9002 29.0735 85.1665 29.4617C82.7855 30.7176 80.0215 31.2543 77.1748 30.8356C74.6364 30.4621 72.3635 29.379 70.5188 27.8051C70.4884 27.7808 70.4576 27.7539 70.4283 27.7273C69.3503 26.7926 68.4223 25.69 67.6758 24.4633C68.6904 24.7908 69.798 25.0122 70.9786 25.0535C70.6846 24.1954 70.1438 23.2523 70.2955 22.7862C70.5471 22.0184 70.7659 21.4146 70.928 20.9888C71.1125 20.5019 71.2232 20.2476 71.2232 20.2476H84.8233C84.8233 20.2476 84.9362 20.4984 85.1255 20.9815C85.3217 21.4817 85.5992 22.2302 85.9167 23.2124C86.1129 23.8185 86.3248 24.5134 86.5411 25.2922C86.9727 25.7658 87.5487 26.4338 88.1918 27.2797Z" fill="#371A45"/>
</g>
</g>
<path d="M91.9946 20.9383C91.8423 20.916 91.7364 20.7705 91.7579 20.6128L92.8756 12.3965C92.8971 12.2388 93.0377 12.1292 93.19 12.1514C94.7868 12.384 95.8989 13.9127 95.6739 15.5653L95.2927 18.3672C95.068 20.0197 93.5911 21.1709 91.9946 20.9383Z" fill="white"/>
<path d="M92.4036 21.0565C92.2647 21.0565 92.1241 21.0466 91.9827 21.0258C91.8865 21.0116 91.801 20.9599 91.7426 20.8794C91.6842 20.799 91.6593 20.6998 91.673 20.6003L92.7907 12.3839C92.8044 12.2841 92.8544 12.1959 92.9321 12.1354C93.0098 12.0749 93.106 12.0495 93.2018 12.0631C93.9967 12.1791 94.7005 12.6084 95.1835 13.2721C95.6664 13.9358 95.8708 14.7545 95.759 15.5773L95.3777 18.3792C95.1664 19.9314 93.8765 21.0565 92.4036 21.0565ZM93.1507 12.2372C93.1093 12.2372 93.0691 12.2511 93.0353 12.2775C92.9942 12.3096 92.9676 12.3562 92.9603 12.4088L91.8426 20.6251C91.8354 20.6778 91.8485 20.7304 91.8795 20.7727C91.9106 20.8152 91.9556 20.8427 92.0064 20.8502C93.5532 21.0765 94.9898 19.9563 95.2078 18.3546L95.589 15.5527C95.807 13.9511 94.7254 12.4646 93.1781 12.239C93.1689 12.2378 93.1599 12.2372 93.1507 12.2372Z" fill="#371A45"/>
<g opacity="0.35">
<g opacity="0.35">
<path opacity="0.35" d="M95.4717 17.0532L95.2931 18.3673C95.0681 20.0195 93.5915 21.1709 91.9945 20.9386C91.8424 20.9166 91.7365 20.7699 91.7577 20.6126L92.0543 18.4283C92.0833 18.5342 92.1703 18.6169 92.2821 18.634L92.4704 18.6609C93.7321 18.8452 94.9197 18.1645 95.4717 17.0532Z" fill="#371A45"/>
</g>
</g>
<path d="M92.4039 21.4619C92.2468 21.4619 92.088 21.4506 91.9279 21.4272C91.728 21.398 91.5511 21.2901 91.4296 21.1231C91.308 20.9562 91.2568 20.7502 91.285 20.5434L92.4028 12.3273C92.431 12.1205 92.5352 11.9373 92.6965 11.8115C92.8578 11.6856 93.0565 11.6324 93.2566 11.6616C94.1552 11.7927 94.9507 12.2779 95.4965 13.028C96.0424 13.7782 96.2732 14.7037 96.1469 15.6338L95.7657 18.4358C95.5267 20.1898 94.0688 21.4616 92.4039 21.4619ZM92.2594 20.469C93.5143 20.5468 94.6415 19.6095 94.8199 18.2978L95.2011 15.4958C95.3794 14.1844 94.5468 12.9624 93.3195 12.6771L92.2594 20.469Z" fill="#371A45"/>
<path d="M66.9895 8.33243C67.1418 8.35471 67.2477 8.50023 67.2262 8.6579L66.1085 16.8742C66.087 17.0319 65.9464 17.1416 65.7941 17.1193C64.1973 16.8867 63.0852 15.358 63.3102 13.7055L63.6914 10.9035C63.9161 9.25069 65.393 8.09954 66.9895 8.33243Z" fill="white"/>
<path d="M65.833 17.211C65.8163 17.211 65.7992 17.2099 65.7822 17.2073C64.9873 17.0913 64.2835 16.6619 63.8005 15.9983C63.3175 15.3346 63.1132 14.5159 63.2253 13.6931L63.6065 10.8911C63.7186 10.0683 64.1334 9.33986 64.7746 8.83993C65.4157 8.34001 66.2067 8.12882 67.0016 8.24425C67.098 8.25842 67.1833 8.31021 67.2417 8.39064C67.3001 8.47107 67.325 8.5703 67.3116 8.66982L66.1939 16.8862C66.1679 17.0748 66.0116 17.211 65.833 17.211ZM66.5762 8.39122C65.9655 8.39122 65.3738 8.59489 64.8774 8.98198C64.2729 9.45326 63.8816 10.1401 63.7762 10.916L63.395 13.7179C63.2893 14.4939 63.4822 15.2657 63.9375 15.8915C64.3928 16.5173 65.0566 16.9223 65.8059 17.0314C65.9118 17.047 66.0085 16.9706 66.0234 16.8619L67.1411 8.64552C67.1483 8.59286 67.1352 8.54021 67.1042 8.49797C67.0732 8.45544 67.0282 8.42796 66.9773 8.42044C66.8434 8.40105 66.7093 8.39122 66.5762 8.39122Z" fill="#371A45"/>
<g opacity="0.35">
<g opacity="0.35">
<path opacity="0.35" d="M66.4189 14.5947L66.1086 16.8741C66.0874 17.0315 65.9457 17.1412 65.7936 17.1192C64.9557 16.9965 64.2502 16.5174 63.8025 15.8503C63.398 15.2477 63.2035 14.4905 63.3103 13.7059L63.4707 12.5253C63.7829 13.6272 64.6946 14.496 65.8655 14.6667L66.155 14.709C66.2607 14.724 66.3588 14.6766 66.4189 14.5947Z" fill="#371A45"/>
</g>
</g>
<path d="M65.8333 17.6165C65.7984 17.6165 65.7632 17.6139 65.7274 17.6086C64.8288 17.4776 64.0333 16.9924 63.4875 16.2422C62.9416 15.4921 62.7108 14.5666 62.8371 13.6365L63.2183 10.8348C63.3449 9.90468 63.8137 9.08132 64.5384 8.5163C65.2631 7.95128 66.157 7.71203 67.0559 7.84308C67.2557 7.8723 67.4326 7.98021 67.5542 8.14714C67.6758 8.31407 67.7269 8.51977 67.699 8.72663L66.5813 16.943C66.5282 17.3335 66.2037 17.6165 65.8333 17.6165ZM66.5771 8.79664C66.0508 8.79664 65.541 8.97225 65.1131 9.30582C64.5921 9.71201 64.255 10.3039 64.1639 10.9725L63.7826 13.7742C63.6918 14.4428 63.8578 15.1082 64.2502 15.6474C64.6024 16.1314 65.0994 16.4621 65.6645 16.5929L66.7244 8.80098C66.6754 8.79808 66.6263 8.79664 66.5771 8.79664Z" fill="#371A45"/>
<path d="M79.4935 28.7743C87.0378 28.7743 93.1537 22.4438 93.1537 14.6347C93.1537 6.82563 87.0378 0.495117 79.4935 0.495117C71.9491 0.495117 65.8333 6.82563 65.8333 14.6347C65.8333 22.4438 71.9491 28.7743 79.4935 28.7743Z" fill="white"/>
<path d="M79.4964 28.8652C78.5461 28.8652 77.5821 28.7625 76.6162 28.5484C69.2047 26.906 64.4655 19.3287 66.0522 11.6572C67.6387 3.9853 74.9587 -0.920197 82.371 0.722201C89.7825 2.3646 94.5217 9.94185 92.935 17.6134C91.5551 24.2857 85.8382 28.8652 79.4964 28.8652ZM79.4908 0.583045C73.2278 0.583045 67.5828 5.10521 66.2202 11.6942C64.6536 19.27 69.3333 26.7529 76.6525 28.3748C83.9714 29.9963 91.2007 25.1525 92.7675 17.5764C94.3341 10.0003 89.6545 2.51764 82.3353 0.895786C81.3816 0.684881 80.4288 0.583045 79.4908 0.583045Z" fill="#371A45"/>
<g opacity="0.35">
<g opacity="0.35">
<path opacity="0.35" d="M93.1189 15.6522C93.0747 16.2962 92.9856 16.9446 92.8514 17.5947C91.2714 25.2303 84.0111 30.0953 76.6341 28.4613C69.2573 26.8259 64.5572 19.3108 66.1358 11.6748C66.1811 11.4553 66.2314 11.2365 66.2865 11.0225C65.7951 17.9525 70.3026 24.3705 77.0525 25.8665C84.2169 27.4537 91.2703 22.9104 93.1189 15.6522Z" fill="#371A45"/>
</g>
</g>
<path d="M79.4967 29.2706C78.5193 29.2706 77.5277 29.165 76.5343 28.9449C68.9116 27.2559 64.0377 19.4625 65.6694 11.5723C67.3011 3.68199 74.8305 -1.36295 82.453 0.325737C90.0758 2.01471 94.9496 9.80807 93.3179 17.6983C91.8989 24.5604 86.0191 29.2706 79.4967 29.2706ZM79.4909 0.98854C73.4084 0.98854 67.9264 5.38022 66.6029 11.7791C65.0813 19.1365 69.6263 26.4033 76.7342 27.9783C83.8415 29.553 90.8628 24.8489 92.3841 17.4915C93.9057 10.1341 89.3608 2.8673 82.2529 1.29231C81.3272 1.08719 80.4018 0.98854 79.4909 0.98854ZM92.8512 17.5951H92.8526H92.8512Z" fill="#371A45"/>
<path d="M92.7355 17.9406C92.2156 20.6546 90.8816 22.9997 89.0265 24.7856C87.6357 26.1245 82.6255 27.939 77.076 26.8533C71.9304 25.8468 67.8003 22.0528 67.0085 20.2657C65.9522 17.8821 65.5839 15.1878 66.1037 12.4738C67.4797 5.29179 74.0116 3.53801 81.366 5.04761C88.7205 6.55722 94.1115 10.7585 92.7355 17.9406Z" fill="#371A45"/>
<g opacity="0.5">
<g opacity="0.5">
<path opacity="0.5" d="M90.2241 16.7401C90.7131 15.4542 90.3799 14.1144 89.4797 13.7476C88.5796 13.3808 87.4534 14.1259 86.9643 15.4118C86.4753 16.6977 86.8086 18.0375 87.7087 18.4042C88.6089 18.771 89.7351 18.026 90.2241 16.7401Z" fill="white"/>
</g>
</g>
<g opacity="0.5">
<g opacity="0.5">
<path opacity="0.5" d="M86.3849 20.9869C86.686 20.4344 86.5587 19.7697 86.1006 19.5022C85.6426 19.2348 85.0271 19.4659 84.7261 20.0184C84.425 20.5708 84.5523 21.2355 85.0103 21.503C85.4684 21.7704 86.0838 21.5394 86.3849 20.9869Z" fill="white"/>
</g>
</g>
<g opacity="0.35">
<g opacity="0.35">
<path opacity="0.35" d="M91.4288 10.7083C92.7486 12.6504 93.2872 15.0552 92.7349 17.9398C92.2147 20.6544 90.8804 22.9993 89.0265 24.7854C87.6354 26.1244 82.6249 27.9386 77.0754 26.8537C75.1159 26.4709 73.3044 25.6834 71.7675 24.7556C78.6166 25.9389 84.7245 23.7034 86.4492 22.0428C88.8037 19.7761 90.4967 16.7994 91.156 13.3555C91.3329 12.4346 91.4201 11.5525 91.4288 10.7083Z" fill="#111A28"/>
</g>
</g>
<path d="M92.7968 11.8468C92.6747 11.8468 92.5537 11.7924 92.4701 11.6883L92.4332 11.6437L92.4081 11.5861C90.7889 7.87056 86.8075 5.11289 81.4847 4.01988C76.1329 2.92138 71.4292 3.95913 68.5797 6.86667L68.547 6.89675C68.3692 7.04575 68.1076 7.02231 67.9575 6.84121C67.8083 6.66097 67.8248 6.39191 67.9922 6.23251C71.046 3.1239 76.023 2.00283 81.6499 3.15803C87.2351 4.30485 91.4332 7.23611 93.1725 11.2031C93.2658 11.3871 93.2222 11.6194 93.0587 11.7525C92.981 11.8161 92.8888 11.8468 92.7968 11.8468Z" fill="#371A45"/>
<g opacity="0.5">
<g opacity="0.5">
<path opacity="0.5" d="M68.2753 17.3605C68.2753 17.3605 67.4837 9.83417 71.7136 7.76793C75.9436 5.7017 81.2487 6.80251 81.0573 7.12943C81.0573 7.12943 74.8996 7.39559 71.6793 11.7317C69.1962 15.0758 68.2753 17.3605 68.2753 17.3605Z" fill="white"/>
</g>
</g>
<path d="M89.3522 60.9592C89.5386 60.9592 89.6898 60.8027 89.6898 60.6097C89.6898 60.4167 89.5386 60.2602 89.3522 60.2602C89.1657 60.2602 89.0145 60.4167 89.0145 60.6097C89.0145 60.8027 89.1657 60.9592 89.3522 60.9592Z" fill="#371A45"/>
<g opacity="0.3">
<g opacity="0.3">
<path opacity="0.3" d="M81.9051 44.5867C81.9051 44.5867 86.6049 42.8902 90.4933 46.9807C94.0667 50.7397 89.8899 54.4483 89.8899 54.4483C89.8899 54.4483 91.177 59.5708 87.835 60.2278C84.9989 60.7853 82.4359 57.9478 82.7635 54.4373C83.0329 51.5509 83.6453 51.8196 83.4195 50.2366C83.164 48.444 79.4727 48.0404 79.4727 48.0404H78.0841C78.0841 48.0404 74.3925 48.444 74.137 50.2366C73.9115 51.8196 74.5239 51.5509 74.793 54.4373C75.1206 57.9478 72.5576 60.7853 69.7215 60.2278C66.3795 59.5708 67.6666 54.4483 67.6666 54.4483C67.6666 54.4483 63.4901 50.7394 67.0632 46.9807C70.9516 42.8905 75.6514 44.5867 75.6514 44.5867H81.9051Z" fill="#371A45"/>
</g>
</g>
<path d="M82.5672 43.1041C82.5672 43.1041 88.262 39.668 92.9735 44.6244C97.3032 49.1793 92.2426 53.6731 92.2426 53.6731C92.2426 53.6731 93.8022 59.8799 89.7529 60.676C86.3164 61.3516 83.2109 57.9134 83.6078 53.6598C83.9343 50.162 84.6761 50.4878 84.4027 48.5697C84.0933 46.3976 79.6202 45.9086 79.6202 45.9086H77.9376C77.9376 45.9086 73.4645 46.3979 73.1551 48.5697C72.8818 50.4881 73.6238 50.1623 73.95 53.6598C74.3469 57.9134 71.2414 61.3516 67.805 60.676C63.7556 59.8799 65.3152 53.6731 65.3152 53.6731C65.3152 53.6731 60.2543 49.179 64.5843 44.6244C69.2958 39.668 74.9906 43.1041 74.9906 43.1041" fill="white"/>
<g opacity="0.35">
<g opacity="0.35">
<path opacity="0.35" d="M91.939 59.2945C91.5217 59.9431 90.8389 60.4642 89.753 60.6771C86.3163 61.3529 83.2108 57.9136 83.6077 53.6608C83.9342 50.1628 84.6757 50.4883 84.4029 48.571C84.0932 46.3986 79.6196 45.9097 79.6196 45.9097H77.937C77.937 45.9097 73.4647 46.3986 73.1548 48.571C72.8809 50.4883 73.6235 50.1628 73.9499 53.6608C74.3468 57.9139 71.2413 61.3529 67.8046 60.6771C66.7188 60.4642 66.0359 59.9431 65.6187 59.2945C65.6486 59.3006 65.6785 59.3069 65.7084 59.3119C69.8016 60.0435 73.5002 56.4147 73.0279 51.8078C72.638 48.0202 71.7542 48.3729 72.0806 46.2948C72.449 43.943 77.7763 43.4133 77.7763 43.4133H79.7805C79.7805 43.4133 85.1081 43.943 85.4762 46.2948C85.8015 48.3732 84.9177 48.0202 84.5289 51.8078C84.0566 56.4147 87.7552 60.0435 91.8484 59.3119C91.8792 59.3067 91.9091 59.3006 91.939 59.2945Z" fill="#371A45"/>
</g>
</g>
<path d="M82.4938 42.9733C83.2537 42.4323 84.0995 42.0664 84.9872 41.8158C85.4304 41.6885 85.8863 41.6061 86.3466 41.5499C86.8081 41.5025 87.2749 41.4941 87.7413 41.5204C88.2084 41.5473 88.6721 41.6301 89.1296 41.7383C89.5883 41.8459 90.0304 42.0175 90.4648 42.2023C91.3231 42.6004 92.1096 43.1481 92.8039 43.7872C93.4923 44.4207 94.1147 45.1805 94.5614 46.0594C94.7774 46.5032 94.9507 46.9742 95.0558 47.4663C95.155 47.9593 95.1863 48.467 95.1503 48.9661C95.0796 49.9682 94.7472 50.9189 94.2822 51.7585C94.0493 52.18 93.7835 52.5775 93.4937 52.9536C93.3475 53.1408 93.1974 53.3242 93.0381 53.5001C92.9587 53.5883 92.878 53.6754 92.7947 53.7608C92.7094 53.8481 92.6309 53.9268 92.5294 54.0191L92.6689 53.5585C92.7494 53.899 92.8036 54.2129 92.852 54.5422C92.8986 54.8682 92.933 55.1963 92.954 55.5264C92.9967 56.1863 92.9856 56.8563 92.8875 57.5281C92.8346 57.8637 92.7628 58.1993 92.656 58.53C92.5459 58.8598 92.4042 59.1835 92.222 59.4896C92.033 59.7925 91.8019 60.072 91.5344 60.3124C91.2625 60.5488 90.9547 60.7345 90.6341 60.8783C90.3108 61.0085 89.9754 61.1069 89.6439 61.1543C89.4787 61.1858 89.3102 61.1936 89.143 61.2096C88.9748 61.2116 88.8065 61.2217 88.6382 61.2075C88.3017 61.1936 87.9672 61.1381 87.6421 61.0513C87.3157 60.9683 86.9998 60.8456 86.6983 60.6969C85.4855 60.1004 84.5307 59.0554 83.9304 57.8516C83.3295 56.6428 83.0687 55.2689 83.1483 53.9251C83.1665 53.5834 83.2076 53.2698 83.2428 52.9446L83.3096 52.4597L83.3923 51.9743C83.4572 51.6511 83.5268 51.3265 83.619 51.0083C83.7068 50.6903 83.8166 50.3764 83.8991 50.0967C83.9818 49.816 84.0221 49.5693 84.0195 49.2904C84.0223 49.2227 84.0167 49.1509 84.012 49.0795C84.0075 49.0083 84.0047 48.9374 83.9938 48.8634L83.9678 48.6435C83.9544 48.5848 83.9471 48.5312 83.9312 48.4757C83.806 48.0397 83.4013 47.6538 82.9161 47.3731C82.43 47.0879 81.8752 46.8804 81.3084 46.7173C80.7433 46.5567 80.1448 46.4335 79.5741 46.3617L79.6202 46.3643H77.9376L77.9838 46.3617C77.4128 46.4335 76.8146 46.5567 76.2495 46.7173C75.6827 46.8804 75.1279 47.0879 74.6418 47.3731C74.1566 47.6538 73.7516 48.0397 73.6267 48.4757C73.6107 48.5309 73.6035 48.5848 73.59 48.6435L73.5641 48.8634C73.5534 48.9374 73.5504 49.0083 73.5459 49.0795C73.5411 49.1509 73.5355 49.2227 73.5383 49.2904C73.5355 49.5693 73.5758 49.8163 73.6588 50.0967C73.7413 50.3764 73.8511 50.6903 73.9389 51.0083C74.0311 51.3268 74.1007 51.6514 74.1655 51.9743L74.2483 52.4597L74.3151 52.9446C74.3503 53.2698 74.3914 53.5834 74.4095 53.9251C74.4892 55.2689 74.2284 56.6425 73.6275 57.8516C73.0271 59.0554 72.0724 60.1004 70.8596 60.6969C70.5581 60.8456 70.2422 60.9683 69.9158 61.0513C69.5904 61.1378 69.2561 61.1936 68.9196 61.2075C68.7517 61.2217 68.5831 61.2116 68.4149 61.2096C68.2474 61.1939 68.0792 61.1858 67.914 61.1543C67.5825 61.1069 67.2468 61.0085 66.9237 60.8783C66.6031 60.7345 66.2954 60.5485 66.0235 60.3124C65.756 60.072 65.5248 59.7925 65.3359 59.4896C65.1539 59.1833 65.012 58.8598 64.9018 58.53C64.7951 58.1993 64.7232 57.8637 64.6704 57.5281C64.5723 56.8563 64.5611 56.186 64.6039 55.5264C64.6249 55.1963 64.6592 54.8682 64.7059 54.5422C64.7543 54.2129 64.8082 53.899 64.889 53.5585L65.0285 54.0191C64.9267 53.9268 64.8485 53.8481 64.7632 53.7608C64.6796 53.6751 64.5989 53.5883 64.5198 53.5001C64.3605 53.3242 64.2104 53.1408 64.0642 52.9536C63.7743 52.5775 63.5085 52.18 63.2757 51.7585C62.8115 50.9186 62.4769 49.9682 62.4093 48.9658C62.3749 48.4664 62.4079 47.9593 62.5085 47.4674C62.6153 46.9765 62.7897 46.5067 63.0071 46.0649C63.4591 45.1909 64.084 44.4378 64.7752 43.8112C65.4673 43.1747 66.2457 42.6207 67.1021 42.2223C67.9534 41.817 68.8774 41.5557 69.814 41.4869C70.2819 41.451 70.7506 41.4637 71.2146 41.5051C71.6777 41.5546 72.1355 41.6408 72.5822 41.762C73.0274 41.8896 73.462 42.0502 73.8785 42.2492C74.2955 42.4503 74.6932 42.6777 75.0644 42.9733C75.1292 43.0248 75.1413 43.1209 75.0915 43.188C75.0515 43.2415 74.9842 43.2603 74.9258 43.2392L74.9166 43.236C74.0971 42.9395 73.2502 42.7202 72.4117 42.5753C71.991 42.5029 71.5687 42.4633 71.1481 42.4349C70.9373 42.4323 70.7271 42.4196 70.5175 42.4289C70.4127 42.432 70.3079 42.4318 70.2031 42.4373L69.89 42.4607C69.0574 42.5353 68.2377 42.7349 67.4696 43.0786C67.0858 43.2502 66.7149 43.4556 66.3639 43.6952C66.012 43.933 65.6738 44.1962 65.3605 44.4919C64.7182 45.0734 64.1746 45.7411 63.7872 46.487C63.603 46.8631 63.4574 47.2557 63.3685 47.6613C63.2858 48.068 63.2587 48.4852 63.2872 48.9013C63.3428 49.7347 63.6251 50.5564 64.0401 51.3066C64.2475 51.6824 64.4879 52.042 64.7509 52.3836C64.8837 52.5535 65.0201 52.7207 65.1643 52.8795C65.2358 52.9594 65.3088 53.0378 65.3831 53.1139C65.4552 53.1882 65.5366 53.2686 65.6017 53.3277L65.8063 53.5131L65.7412 53.7882C65.6758 54.0651 65.6202 54.3773 65.5771 54.6764C65.5338 54.979 65.5019 55.2834 65.4826 55.5874C65.443 56.1953 65.4552 56.8034 65.5408 57.3893C65.5869 57.6806 65.6484 57.967 65.7364 58.2398C65.8273 58.5106 65.941 58.7678 66.0805 59.0039C66.2258 59.235 66.3977 59.4407 66.5931 59.6181C66.7929 59.7908 67.0196 59.9273 67.2616 60.0376C67.5107 60.1354 67.7687 60.2149 68.0459 60.254C68.1829 60.2809 68.3221 60.2858 68.4601 60.3C68.5988 60.3006 68.7377 60.3104 68.876 60.298C69.1533 60.2872 69.4286 60.2407 69.6975 60.1692C69.9675 60.1012 70.2296 59.9988 70.482 59.8747C71.4952 59.3774 72.3222 58.4843 72.8455 57.4341C73.369 56.3801 73.6015 55.172 73.5305 53.9792C73.5157 53.6861 73.4749 53.369 73.4416 53.0627L73.3785 52.6038L73.3013 52.1505C73.241 51.8513 73.1781 51.5551 73.0934 51.2643C73.0129 50.971 72.9123 50.6869 72.815 50.3591C72.7161 50.033 72.6515 49.6465 72.6576 49.2892C72.6551 49.1981 72.6613 49.1113 72.6669 49.0239C72.6722 48.9365 72.6766 48.8486 72.6884 48.7653L72.7186 48.5121C72.7373 48.4158 72.7549 48.3116 72.7829 48.2153C72.8977 47.8227 73.1213 47.4871 73.3746 47.2236C73.6292 46.9577 73.9145 46.7543 74.2052 46.5822C74.7894 46.2405 75.4006 46.0171 76.015 45.8392C76.6343 45.6645 77.2434 45.5372 77.8915 45.4556L77.9117 45.453H77.9379H79.6205H79.6468L79.6669 45.4556C80.3151 45.5372 80.9241 45.6645 81.5435 45.8392C82.1578 46.0171 82.7691 46.2405 83.3532 46.5822C83.6439 46.7543 83.9293 46.9577 84.1839 47.2236C84.4371 47.4871 84.6607 47.8224 84.7756 48.2153C84.8035 48.3119 84.8211 48.4158 84.8399 48.5121L84.87 48.7653C84.8818 48.8486 84.8863 48.9365 84.8916 49.0239C84.8972 49.111 84.9033 49.1978 84.9008 49.2892C84.9069 49.6465 84.8424 50.033 84.7434 50.3591C84.6462 50.6869 84.5458 50.971 84.4651 51.2643C84.3806 51.5548 84.3175 51.8513 84.2571 52.1505L84.18 52.6038L84.1168 53.0627C84.0835 53.3687 84.043 53.6858 84.0279 53.9792C83.9572 55.1717 84.1895 56.3799 84.713 57.4341C85.2362 58.4843 86.063 59.3774 87.0764 59.8747C87.3285 59.9991 87.591 60.1012 87.861 60.1692C88.1298 60.241 88.4051 60.2872 88.6824 60.298C88.8208 60.3107 88.9597 60.3006 89.0983 60.3C89.2367 60.2858 89.3756 60.2809 89.5128 60.254C89.7901 60.2146 90.048 60.1354 90.2971 60.0376C90.5394 59.9273 90.7661 59.7908 90.9656 59.6181C91.161 59.4404 91.3329 59.2347 91.4782 59.0039C91.6174 58.7678 91.7315 58.5109 91.8223 58.2398C91.9103 57.9673 91.9718 57.6809 92.0179 57.3893C92.1035 56.8034 92.1158 56.1953 92.0761 55.5874C92.0568 55.2834 92.0249 54.979 91.9816 54.6764C91.9383 54.3773 91.8829 54.0651 91.8175 53.7882L91.7524 53.5131L91.957 53.3277C92.0221 53.2686 92.1038 53.1882 92.1756 53.1139C92.2497 53.0378 92.3226 52.9594 92.3944 52.8795C92.5386 52.7207 92.675 52.5535 92.8078 52.3836C93.0711 52.042 93.3112 51.6824 93.5186 51.3066C93.9328 50.5564 94.2173 49.735 94.2701 48.9013C94.297 48.4852 94.2682 48.0686 94.1841 47.6627C94.0935 47.258 93.947 46.8668 93.7612 46.4925C93.3693 45.7507 92.8209 45.0925 92.1792 44.5139C91.5475 43.9338 90.8401 43.4547 90.0821 43.0943C89.3202 42.7445 88.5074 42.5122 87.6709 42.4297C86.8355 42.3398 85.9819 42.3814 85.1364 42.5235C84.2934 42.6675 83.4446 42.9042 82.6424 43.2357L82.6324 43.2398C82.5569 43.271 82.4714 43.2328 82.4415 43.155C82.4147 43.0879 82.4384 43.013 82.4938 42.9733Z" fill="#371A45"/>
<path d="M92.4095 54.0976L92.1065 54.1971C91.9947 54.2298 91.8821 54.2599 91.7686 54.2825C91.5422 54.3296 91.3153 54.3554 91.0906 54.3623C90.6406 54.3774 90.2018 54.3233 89.7789 54.2295C89.358 54.1257 88.951 53.9903 88.5617 53.8193C88.3652 53.7392 88.1782 53.6365 87.9876 53.5468C87.8014 53.4464 87.6187 53.3402 87.4353 53.2381C87.634 53.3061 87.8305 53.3767 88.0281 53.4409C88.2296 53.4941 88.4261 53.5601 88.6285 53.602C89.0298 53.6975 89.4362 53.7533 89.8373 53.7776C90.2392 53.7918 90.6367 53.7661 91.0131 53.683C91.2015 53.6422 91.3838 53.5861 91.5573 53.515C91.6445 53.4805 91.7284 53.4403 91.8117 53.3984L92.0845 53.2497C92.3008 53.1319 92.5685 53.2178 92.6823 53.4418C92.7963 53.6657 92.713 53.9428 92.4967 54.0606C92.4741 54.073 92.4506 54.0831 92.4268 54.0912L92.4095 54.0976Z" fill="#371A45"/>
<path d="M65.5172 53.2499L65.7899 53.3986C65.873 53.4406 65.9571 53.4808 66.0443 53.5152C66.2176 53.5864 66.4001 53.6425 66.5885 53.6833C66.9652 53.7663 67.3627 53.7921 67.7643 53.7779C68.1654 53.7536 68.5718 53.6978 68.9732 53.6023C69.1755 53.5601 69.372 53.4944 69.5735 53.4412C69.7711 53.3769 69.9676 53.3061 70.1663 53.2384C69.9833 53.3408 69.8005 53.4467 69.6141 53.547C69.4237 53.6367 69.2365 53.7394 69.04 53.8196C68.6506 53.9908 68.2437 54.1259 67.8227 54.2298C67.3999 54.3233 66.961 54.3776 66.5111 54.3626C66.2863 54.3557 66.0591 54.3296 65.833 54.2828C65.7195 54.2602 65.6072 54.2304 65.4954 54.1974L65.1927 54.0979L65.1767 54.0927C64.9436 54.016 64.8148 53.7582 64.8888 53.5172C64.9629 53.2762 65.2119 53.1426 65.4448 53.2193C65.4694 53.2268 65.4951 53.2381 65.5172 53.2499Z" fill="#371A45"/>
<path d="M94.5281 50.3546C94.5052 50.3546 94.482 50.352 94.4585 50.3471C94.2802 50.3075 94.1667 50.1258 94.2047 49.9412C94.3568 49.2064 94.2461 48.685 93.866 48.3474C92.2902 46.948 86.6273 48.736 84.5782 49.5431C84.4078 49.6102 84.2171 49.5217 84.1523 49.3452C84.0874 49.1688 84.173 48.9715 84.3435 48.9043C85.135 48.5925 92.1395 45.9138 94.2958 47.829C94.8683 48.3373 95.055 49.0964 94.8504 50.0847C94.8177 50.2447 94.6807 50.3546 94.5281 50.3546Z" fill="#371A45"/>
<path d="M63.1625 50.3549C63.0102 50.3549 62.8732 50.2452 62.84 50.0847C62.6354 49.0964 62.8221 48.3372 63.3945 47.8289C65.5511 45.9137 72.5553 48.5927 73.3469 48.9043C73.5174 48.9714 73.6029 49.169 73.538 49.3452C73.4732 49.5214 73.2826 49.6099 73.1121 49.5431C71.0628 48.7362 65.3993 46.9486 63.8244 48.3477C63.4442 48.6853 63.3336 49.2066 63.4856 49.9415C63.5239 50.126 63.4102 50.3077 63.2318 50.3474C63.2086 50.3523 63.1854 50.3549 63.1625 50.3549Z" fill="#371A45"/>
<path d="M105.15 65.5016C105.15 65.5016 126.115 63.4782 127.13 70.0173C128.143 76.5542 103.12 87.5183 72.1052 90.9111C41.0885 94.3052 12.4141 99.3299 6.39243 92.8029C0.370775 86.2758 23.4236 81.8154 23.4236 81.8154L24.3318 79.9989C24.3318 79.9989 -1.76973 86.5699 1.69516 93.3042C5.16005 100.038 47.295 97.4843 72.1106 93.6335C103.245 88.801 131.72 77.4307 130.226 70.1549C128.052 59.5548 104.143 63.8943 104.143 63.8943L105.15 65.5016Z" fill="#2B2A65"/>
<path d="M103.062 61.0781C103.062 61.0781 122.677 54.1904 122.775 58.5745C122.872 62.9575 99.7232 78.2419 72.2107 90.0888C44.6961 101.937 17.3781 115.334 12.9029 112.479C8.42772 109.623 27.5104 100.586 27.5104 100.586L26.4115 99.6777C26.4115 99.6777 7.06155 110.568 9.27742 114.349C11.4933 118.129 49.1527 105.442 71.3033 95.1482C99.0943 82.2318 125.893 62.5007 125.464 57.7336C124.843 50.7874 101.472 59.8621 101.472 59.8621L103.062 61.0781Z" fill="#2B2A65"/>
</svg>
