<svg width="30" height="30" viewBox="0 0 30 30" fill="none" xmlns="http://www.w3.org/2000/svg">
<path d="M7.5 2.5H18.75C19.413 2.5 20.0489 2.76339 20.5178 3.23223C20.9866 3.70107 21.25 4.33696 21.25 5V7.5H18.75V5H7.5V25H18.75V22.5H21.25V25C21.25 25.663 20.9866 26.2989 20.5178 26.7678C20.0489 27.2366 19.413 27.5 18.75 27.5H7.5C6.83696 27.5 6.20107 27.2366 5.73223 26.7678C5.26339 26.2989 5 25.663 5 25V5C5 4.33696 5.26339 3.70107 5.73223 3.23223C6.20107 2.76339 6.83696 2.5 7.5 2.5Z" fill="white"/>
<path d="M20.1125 19.4875L21.875 21.25L28.125 15L21.875 8.75L20.1125 10.5125L23.3375 13.75H11.25V16.25H23.3375L20.1125 19.4875Z" fill="white"/>
</svg>
