<svg width="35" height="35" viewBox="0 0 35 35" fill="none" xmlns="http://www.w3.org/2000/svg">
<path d="M29.5366 26.075C30.2195 24.85 30.7317 23.45 30.7317 21.875C30.7317 17.5 27.3171 14 23.0488 14C18.7805 14 15.3659 17.5 15.3659 21.875C15.3659 26.25 18.7805 29.75 23.0488 29.75C24.5854 29.75 25.9512 29.225 27.1463 28.525L32.6098 34.125L35 31.675L29.5366 26.075ZM23.0488 26.25C20.6585 26.25 18.7805 24.325 18.7805 21.875C18.7805 19.425 20.6585 17.5 23.0488 17.5C25.439 17.5 27.3171 19.425 27.3171 21.875C27.3171 24.325 25.439 26.25 23.0488 26.25ZM17.0732 31.5V35C7.64878 35 0 27.16 0 17.5C0 7.84 7.64878 0 17.0732 0C25.3366 0 32.2171 6.02 33.8049 14H30.2707C29.7382 11.8857 28.7306 9.92842 27.3284 8.28452C25.9262 6.64063 24.1683 5.35573 22.1951 4.5325V5.25C22.1951 7.175 20.6585 8.75 18.7805 8.75H15.3659V12.25C15.3659 13.2125 14.5976 14 13.6585 14H10.2439V17.5H13.6585V22.75H11.9512L3.77317 14.3675C3.55122 15.3825 3.41463 16.415 3.41463 17.5C3.41463 25.2175 9.5439 31.5 17.0732 31.5Z" fill="white"/>
</svg>
