<svg width="29" height="31" viewBox="0 0 29 31" fill="none" xmlns="http://www.w3.org/2000/svg">
<path fill-rule="evenodd" clip-rule="evenodd" d="M25.4407 15.5C25.4407 15.9958 25.3969 16.4625 25.3386 16.9291L28.4157 19.3354C28.6928 19.5541 28.7657 19.9479 28.5907 20.2687L25.674 25.3145C25.499 25.6354 25.1198 25.7666 24.7844 25.6354L21.1532 24.177C20.3948 24.7458 19.5782 25.2416 18.6886 25.6062L18.1344 29.4708C18.0907 29.8208 17.7844 30.0833 17.4198 30.0833H11.5865C11.2219 30.0833 10.9157 29.8208 10.8719 29.4708L10.3178 25.6062C9.42818 25.2416 8.61152 24.7604 7.85318 24.177L4.22193 25.6354C3.9011 25.752 3.50735 25.6354 3.33235 25.3145L0.415684 20.2687C0.240684 19.9479 0.3136 19.5541 0.590684 19.3354L3.66777 16.9291C3.60943 16.4625 3.56568 15.9812 3.56568 15.5C3.56568 15.0187 3.60943 14.5375 3.66777 14.0708L0.590684 11.6645C0.3136 11.4458 0.2261 11.052 0.415684 10.7312L3.33235 5.68538C3.50735 5.36454 3.88652 5.23329 4.22193 5.36454L7.85318 6.82288C8.61152 6.25413 9.42818 5.75829 10.3178 5.39371L10.8719 1.52913C10.9157 1.17913 11.2219 0.916626 11.5865 0.916626H17.4198C17.7844 0.916626 18.0907 1.17913 18.1344 1.52913L18.6886 5.39371C19.5782 5.75829 20.3948 6.23954 21.1532 6.82288L24.7844 5.36454C25.1053 5.24788 25.499 5.36454 25.674 5.68538L28.5907 10.7312C28.7657 11.052 28.6928 11.4458 28.4157 11.6645L25.3386 14.0708C25.3969 14.5375 25.4407 15.0041 25.4407 15.5ZM9.39902 15.5C9.39902 18.3145 11.6886 20.6041 14.5032 20.6041C17.3178 20.6041 19.6073 18.3145 19.6073 15.5C19.6073 12.6854 17.3178 10.3958 14.5032 10.3958C11.6886 10.3958 9.39902 12.6854 9.39902 15.5Z" fill="white"/>
</svg>
