<svg width="24" height="24" viewBox="0 0 24 24" fill="none" xmlns="http://www.w3.org/2000/svg">
<path d="M18.9664 0.870245C16.6454 3.19261 14.3203 5.51539 12.0018 7.83816C9.67917 5.51661 7.35656 3.19383 5.03313 0.870245C2.34563 -1.81576 -1.8185 2.34996 0.867782 5.03596C3.18958 7.3563 5.51342 9.6803 7.83238 11.9998C5.51179 14.3214 3.18837 16.645 0.867782 18.9677C-1.8185 21.6529 2.34766 25.8174 5.03313 23.1331C7.35493 20.8103 9.67755 18.4879 12.0018 16.1651C14.3244 18.4879 16.6454 20.8095 18.9664 23.1331C21.6531 25.8178 25.8176 21.6529 23.1334 18.9681C20.8103 16.6454 18.4877 14.3238 16.1647 12.0002C18.4881 9.67786 20.8107 7.35508 23.1334 5.03231C25.8176 2.34712 21.6531 -1.8186 18.9664 0.8674" fill="#C4C4C4"/>
</svg>
